<?xml version="1.0" encoding="utf-8"?>
<!-- Generator: Adobe Illustrator 19.0.0, SVG Export Plug-In . SVG Version: 6.00 Build 0)  -->
<svg version="1.1" id="layer" xmlns="http://www.w3.org/2000/svg" xmlns:xlink="http://www.w3.org/1999/xlink" x="0px" y="0px"
	 viewBox="-153 -46 652 652" style="enable-background:new -153 -46 652 652;" xml:space="preserve">
<style type="text/css">
	.st0{fill:#A4A6A9;}
	.st1{fill:#46166B;}
</style>
<path class="st0" d="M-84.7,229.3h-28c-7.5,0-13.6-6.1-13.6-13.5c0-7.5,6.1-13.5,13.6-13.5h28V229.3z M-84.7,256.3h-28
	c-7.5,0-13.6,6.1-13.6,13.5c0,7.5,6.1,13.5,13.6,13.5h28V256.3z M-1.7,310.4h4.8v-11.9h12.6v11.9h4.8v-27h-4.8v10.8H3.2v-10.8h-4.8
	V310.4z M27,310.4h18.6v-4.3H31.8v-7.3h12.4v-4.4H31.8v-6.6h13.1v-4.4H27V310.4z M58.4,300.1l4.2-11l4.2,11H58.4z M48.9,310.4h5.4
	l2.4-6.2h11.7l2.5,6.2h5.5l-11.7-27h-4.2L48.9,310.4z M80.2,310.4h16.3v-4.3H85.1v-22.7h-4.8V310.4z M105,310.4h4.8v-22.7h8.3v-4.4
	H96.7v4.4h8.3V310.4z M122.2,310.4h4.8v-11.9h12.6v11.9h4.8v-27h-4.8v10.8H127v-10.8h-4.8V310.4z M172.8,287
	c-2.7-3.1-5.8-4.3-9.5-4.3c-8.3,0-14.3,5.7-14.3,14.3c0,8.4,6,14.1,14.3,14.1c4,0,7.6-1.5,10.1-4.8l-4-2.8c-1.8,2.3-3.9,3.3-6.1,3.3
	c-5.6,0-9.3-4.3-9.3-10c0-5.4,3.7-9.7,9.3-9.7c1.9,0,3.7,0.6,5.7,2.7L172.8,287z M184.6,300.1l4.2-11l4.2,11H184.6z M175.2,310.4
	h5.4l2.4-6.2h11.7l2.5,6.2h5.5l-11.6-27h-4.2L175.2,310.4z M211.7,294.8v-7.3h4.2c2.5,0,5.5,0.4,5.5,3.6c0,3.5-3.2,3.7-5.9,3.7
	H211.7z M206.9,310.4h4.8V299h3.5l6.3,11.5h5.8l-7.2-12c4-0.6,6.3-3.4,6.3-7.3c0-6.1-4.9-7.8-10.1-7.8h-9.4V310.4z M232.3,310.4
	h18.6v-4.3h-13.8v-7.3h12.4v-4.4h-12.4v-6.6h13.1v-4.4h-17.9V310.4z M272.8,310.4h4.8v-20.7h0.1l13.4,20.7h6.1v-27h-4.8v20.1h-0.1
	l-13.1-20.1h-6.4V310.4z M303.6,310.4h18.6v-4.3h-13.8v-7.3h12.4v-4.4h-12.4v-6.6h13.1v-4.4h-17.9V310.4z M335,310.4h4.8v-22.7h8.3
	v-4.4h-21.4v4.4h8.3V310.4z M359,310.4h4.4l6.3-20.6h0.1l6.3,20.6h4.6l7.9-27h-4.9l-5.3,19.5h-0.1l-6-19.5h-4.7l-6.1,19.5h-0.1
	l-5.1-19.5H351L359,310.4z M405,306.7c-5.6,0-9.3-4.3-9.3-10c0-5.4,3.7-9.7,9.3-9.7c5.6,0,9.3,4.3,9.3,9.7
	C414.3,302.5,410.6,306.7,405,306.7 M404.9,282.7c-8.3,0-14.3,5.7-14.3,14.3c0,8.4,6,14.1,14.3,14.1c8.4-0.1,14.4-5.8,14.4-14.2
	C419.3,288.2,413.4,282.5,404.9,282.7 M429.3,294.8v-7.3h4.2c2.5,0,5.5,0.4,5.5,3.6c0,3.5-3.2,3.7-5.9,3.7H429.3z M424.5,310.4h4.8
	V299h3.5l6.3,11.5h5.8l-7.2-12c4-0.6,6.3-3.4,6.3-7.3c0-6.1-4.9-7.8-10.1-7.8h-9.4V310.4z M450.1,310.4h4.8v-13.3h0.3l11.7,13.3h6.8
	l-13.5-14.5l12.6-12.5h-6.5l-11.2,11.5h-0.2v-11.5h-4.8V310.4z"/>
<path class="st1" d="M-43.1,188.7c0,7.5-6.1,13.5-13.6,13.5h-28v-27.1h28C-49.2,175.1-43.1,181.2-43.1,188.7 M-43.1,296.9
	c0-7.5-6.1-13.5-13.6-13.5h-28v27.1h28C-49.2,310.4-43.1,304.4-43.1,296.9 M-43.1,242.8c0-7.5-6.1-13.5-13.6-13.5h-28v27.1h28
	C-49.2,256.3-43.1,250.3-43.1,242.8 M70.7,261.9v-20.2h-44V228h35.8v-20.2H26.8v-12.4h42.3v-20.2H-1.7v86.7H70.7z M76.4,261.9h25.1
	v-63.1H76.4V261.9z M76.4,193h25.1v-17.8H76.4V193z M110,261.9h25.1v-32.2c0-8.1,2-13,9.8-13c7.1,0,8.8,5.5,8.8,11.8v33.4h25.1
	v-37.8c0-17.3-7.8-27.1-24.5-27.1c-9.5,0-15.7,4.1-21.3,11.7v-9.9H110V261.9z M183.7,242.2c1.3,17,17.2,21.4,31.7,21.4
	c23.1,0,34-8.9,34-22c0-23.6-39.9-17.7-39.9-26.5c0-3.1,2.8-4.5,7.1-4.5c1.9,0,3.7,0.5,5.1,1.6c1.3,1.1,2.2,2.5,2.4,4.6h22.8
	c-1.4-16.7-17.6-19.9-31.3-19.9c-13.1,0-29.9,4.7-29.9,20.8c0,24.5,38.7,16.4,38.7,26.5c0,4.5-4.1,5.7-8,5.7c-2.4,0-4.6-0.7-6.1-1.9
	c-1.7-1.3-2.7-3.3-2.7-5.8H183.7z M293.6,243.9h-4c-7,0-7.8-2-7.8-7.8v-22.9h12v-14.5h-12v-19.6h-24.7v19.6h-9.3v14.5h8.9v26.4
	c0,21.8,4,24.1,36.9,22.3V243.9z M321.2,223.2c0-6.7,4.2-11,11.7-11c5.9,0,11.1,5.2,11.1,11H321.2z M369,236
	c0.4-22.9-13.7-39-37.1-39c-20.2,0-35.8,13.2-35.8,34c0,21.2,15.7,32.8,35.9,32.8c14.7,0,30.6-5.2,34.9-20.8h-24
	c-1.8,3.7-5.4,5.5-9.4,5.5c-6.6,0-12.4-4.9-12.4-12.4H369z M372.9,261.9H398v-63.1h-25.1V261.9z M372.9,193H398v-17.8h-25.1V193z
	 M404.1,261.9h25.1v-32.2c0-8.1,2.1-13,9.8-13c7.1,0,8.8,5.5,8.8,11.8v33.4h25.1v-37.8c0-17.3-7.8-27.1-24.5-27.1
	c-9.5,0-15.7,4.1-21.3,11.7v-9.9h-22.9V261.9z M16.1,376.3l-6.7-28.8H-1.7v36.6h7.1v-24.8c0-0.7,0-1.7,0-3c0-1.3,0-2.3,0-3l6.9,30.7
	h7.4l6.9-30.7c0,0.7,0,1.7,0,3c0,1.3,0,2.3,0,3v24.8h7.1v-36.6h-11L16.1,376.3z M63.1,380.8c2.3-2.8,3.4-6.2,3.4-10.2
	c0-3.9-1.1-7.3-3.4-10.2c-2.3-2.9-5.8-4.3-10.4-4.3c-4.7,0-8.1,1.4-10.4,4.3c-2.3,2.9-3.4,6.3-3.4,10.2c0,4,1.1,7.4,3.4,10.2
	c2.3,2.8,5.8,4.2,10.4,4.2C57.4,385,60.8,383.6,63.1,380.8 M57.5,376.9c-1.1,1.5-2.7,2.2-4.8,2.2s-3.7-0.7-4.8-2.2
	c-1.1-1.5-1.7-3.6-1.7-6.3c0-2.7,0.6-4.8,1.7-6.3c1.1-1.5,2.7-2.2,4.8-2.2s3.7,0.7,4.8,2.2c1.1,1.5,1.7,3.6,1.7,6.3
	C59.1,373.3,58.6,375.4,57.5,376.9 M86.9,356.4c-0.1,0-0.2,0-0.3,0c-2.1,0-3.8,0.6-5.2,1.7c-0.8,0.7-1.8,1.9-2.9,3.7V357h-6.8v27.1
	h7.1v-12.9c0-2.2,0.3-3.8,0.8-4.8c1-1.9,2.9-2.8,5.7-2.8c0.2,0,0.5,0,0.8,0c0.3,0,0.7,0.1,1.2,0.1v-7.3
	C87.2,356.4,87,356.4,86.9,356.4 M109.6,357.6c-1.9-0.8-4-1.3-6.4-1.3c-4,0-7.2,1.3-9.7,3.8c-2.5,2.5-3.7,6.1-3.7,10.8
	c0,5,1.4,8.6,4.1,10.8c2.8,2.2,5.9,3.3,9.5,3.3c4.4,0,7.8-1.3,10.2-4c1.6-1.7,2.4-3.3,2.6-4.9h-7.2c-0.4,0.8-0.9,1.4-1.5,1.9
	c-1,0.8-2.3,1.2-3.9,1.2c-1.5,0-2.8-0.3-3.9-1c-1.8-1.1-2.7-3-2.8-5.7h19.7c0-2.3,0-4.1-0.2-5.4c-0.3-2.1-1-4-2.2-5.6
	C113,359.7,111.5,358.4,109.6,357.6 M99,363.7c1-1,2.4-1.5,4.2-1.5c1.7,0,3.1,0.5,4.2,1.5c1.1,1,1.8,2.4,1.9,4.3H97.1
	C97.4,366.1,98,364.7,99,363.7 M135.9,362.3V379c0,1.7,0.4,2.9,1.2,3.8c1.2,1.3,3.5,1.9,6.9,1.7l3.4-0.1v-5.3c-0.2,0-0.5,0-0.7,0
	c-0.2,0-0.5,0-0.7,0c-1.4,0-2.3-0.1-2.6-0.4c-0.3-0.3-0.4-1-0.4-2.1v-14.3h4.4v-5h-4.4v-7.6h-7v7.6h-3.8v5H135.9z M171.6,357.2
	c-1.4-0.6-2.9-0.9-4.5-0.9c-1.5,0-2.9,0.3-4.2,0.9c-1.3,0.6-2.5,1.7-3.5,3.3v-12.9h-7.1v36.5h7.1v-14.7c0-2.3,0.5-4.1,1.4-5.4
	c1-1.3,2.4-1.9,4.2-1.9c1.8,0,3,0.6,3.7,1.9c0.5,0.9,0.7,2.1,0.7,3.5v16.5h7.2v-15.9c0-2.4-0.1-4.2-0.2-5.2
	c-0.2-1.1-0.6-2.1-1.4-3.1C174.1,358.6,172.9,357.7,171.6,357.2 M191.7,367.9c-2.8,0.3-4.8,0.9-6.3,1.7c-2.6,1.5-3.9,3.9-3.9,7.2
	c0,2.6,0.8,4.6,2.4,6c1.6,1.4,3.6,2.1,6.1,2.1c1.9,0,3.7-0.4,5.2-1.3c1.3-0.7,2.4-1.6,3.4-2.7c0.1,0.6,0.1,1.2,0.2,1.6
	c0.1,0.5,0.2,1,0.4,1.5h7.7v-1c-0.5-0.2-0.8-0.5-1-0.8c-0.2-0.3-0.4-1-0.4-1.9c0-1.2-0.1-2.3-0.1-3.1v-12.4c0-3.3-1.2-5.5-3.5-6.7
	c-2.3-1.2-5-1.8-7.9-1.8c-4.6,0-7.8,1.2-9.7,3.6c-1.2,1.5-1.8,3.5-2,5.8h6.8c0.2-1,0.5-1.9,1-2.5c0.7-0.8,1.9-1.2,3.6-1.2
	c1.5,0,2.7,0.2,3.4,0.6c0.8,0.4,1.2,1.2,1.2,2.3c0,0.9-0.5,1.6-1.5,2c-0.6,0.2-1.5,0.5-2.8,0.6L191.7,367.9z M198.5,373.6
	c-0.1,2.4-0.7,4-2,4.9c-1.3,0.9-2.7,1.3-4.3,1.3c-1,0-1.8-0.3-2.5-0.8c-0.7-0.5-1-1.4-1-2.6c0-1.4,0.6-2.4,1.7-3
	c0.7-0.4,1.7-0.7,3.3-1l1.6-0.3c0.8-0.2,1.4-0.3,1.9-0.5c0.5-0.2,0.9-0.4,1.4-0.7V373.6z M233.9,358.6c-1.8-1.5-4.1-2.2-6.8-2.2
	c-2.2,0-4.1,0.5-5.5,1.6c-0.8,0.6-1.7,1.6-2.6,3v-4h-6.9v27h7.1v-14.7c0-1.7,0.2-3,0.7-4.1c0.9-2,2.5-3.1,4.9-3.1
	c1.9,0,3.3,0.7,3.9,2.1c0.4,0.8,0.6,1.9,0.6,3.3v16.5h7.3v-18.2C236.5,362.5,235.6,360,233.9,358.6 M276,376.3l-6.7-28.8h-11.1v36.6
	h7.1v-24.8c0-0.7,0-1.7,0-3c0-1.3,0-2.3,0-3l6.9,30.7h7.4l6.9-30.7c0,0.7,0,1.7,0,3c0,1.3,0,2.3,0,3v24.8h7.1v-36.6h-11L276,376.3z
	 M318.1,357.6c-1.9-0.8-4-1.3-6.4-1.3c-4,0-7.2,1.3-9.7,3.8c-2.5,2.5-3.7,6.1-3.7,10.8c0,5,1.4,8.6,4.1,10.8
	c2.8,2.2,5.9,3.3,9.5,3.3c4.4,0,7.8-1.3,10.2-4c1.6-1.7,2.4-3.3,2.6-4.9h-7.2c-0.4,0.8-0.9,1.4-1.5,1.9c-1,0.8-2.3,1.2-3.9,1.2
	c-1.5,0-2.8-0.3-3.9-1c-1.8-1.1-2.7-3-2.8-5.7h19.7c0-2.3,0-4.1-0.2-5.4c-0.3-2.1-1-4-2.2-5.6C321.5,359.7,319.9,358.4,318.1,357.6
	 M307.5,363.7c1-1,2.4-1.5,4.2-1.5c1.7,0,3.1,0.5,4.2,1.5c1.1,1,1.8,2.4,1.9,4.3h-12.2C305.8,366.1,306.5,364.7,307.5,363.7
	 M343.3,357.4c-1.3-0.7-2.7-1.1-4.4-1.1c-3.6,0-6.4,1.3-8.5,4c-2.1,2.7-3.2,6.3-3.2,10.9c0,4,1.1,7.3,3.2,9.9c2.2,2.6,4.8,3.8,8,3.8
	c1.9,0,3.5-0.4,4.8-1.1c1.3-0.7,2.4-1.9,3.5-3.5v3.8h6.9v-36.6h-7.2v12.9C345.6,359.2,344.6,358.2,343.3,357.4 M345.1,376.7
	c-1,1.5-2.6,2.2-4.6,2.2c-2,0-3.5-0.7-4.5-2.2c-1-1.5-1.5-3.5-1.5-6c0-2.3,0.5-4.3,1.5-5.8c1-1.6,2.5-2.3,4.6-2.3
	c1.4,0,2.6,0.4,3.6,1.3c1.7,1.4,2.5,3.8,2.5,7.1C346.6,373.3,346.1,375.3,345.1,376.7 M367.6,347.2h-7.2v6.5h7.2V347.2z
	 M360.4,384.1h7.2V357h-7.2V384.1z M398.2,366.7c-0.4-3.9-1.7-6.6-3.8-8.1c-2.2-1.5-4.9-2.3-8.3-2.3c-4,0-7.1,1.3-9.4,3.9
	c-2.3,2.6-3.4,6.2-3.4,10.8c0,4.1,1,7.5,3.1,10.1c2.1,2.6,5.3,3.9,9.6,3.9c4.4,0,7.7-1.5,9.9-4.6c1.4-1.9,2.2-4,2.3-6.1h-7.2
	c-0.2,1.4-0.6,2.6-1.3,3.5c-0.7,0.9-1.9,1.3-3.5,1.3c-2.3,0-3.9-1.1-4.8-3.4c-0.5-1.2-0.7-2.8-0.7-4.8c0-2.1,0.2-3.8,0.7-5
	c0.9-2.4,2.5-3.6,4.9-3.6c1.7,0,2.9,0.5,3.7,1.6c0.5,0.8,0.9,1.7,1,2.7H398.2z M410.5,347.2h-7.2v6.5h7.2V347.2z M403.4,384.1h7.2
	V357h-7.2V384.1z M439.5,358.6c-1.8-1.5-4.1-2.2-6.8-2.2c-2.2,0-4.1,0.5-5.5,1.6c-0.8,0.6-1.7,1.6-2.6,3v-4h-6.9v27h7.1v-14.7
	c0-1.7,0.2-3,0.7-4.1c0.9-2,2.5-3.1,4.9-3.1c1.9,0,3.3,0.7,3.9,2.1c0.4,0.8,0.6,1.9,0.6,3.3v16.5h7.3v-18.2
	C442.2,362.5,441.3,360,439.5,358.6 M466.7,357.6c-1.9-0.8-4-1.3-6.4-1.3c-4,0-7.2,1.3-9.7,3.8c-2.5,2.5-3.7,6.1-3.7,10.8
	c0,5,1.4,8.6,4.1,10.8c2.8,2.2,5.9,3.3,9.5,3.3c4.4,0,7.8-1.3,10.2-4c1.6-1.7,2.4-3.3,2.6-4.9h-7.2c-0.4,0.8-0.9,1.4-1.5,1.9
	c-1,0.8-2.3,1.2-3.9,1.2c-1.5,0-2.8-0.3-3.9-1c-1.8-1.1-2.7-3-2.8-5.7h19.7c0-2.3,0-4.1-0.2-5.4c-0.3-2.1-1-4-2.2-5.6
	C470.1,359.7,468.5,358.4,466.7,357.6 M456.1,363.7c1-1,2.4-1.5,4.2-1.5c1.7,0,3.1,0.5,4.2,1.5c1.1,1,1.8,2.4,1.9,4.3h-12.2
	C454.4,366.1,455.1,364.7,456.1,363.7"/>
</svg>
