<?xml version="1.0" encoding="utf-8"?>
<!-- Generator: Adobe Illustrator 19.0.0, SVG Export Plug-In . SVG Version: 6.00 Build 0)  -->
<svg version="1.1" id="Layer_1" xmlns="http://www.w3.org/2000/svg" xmlns:xlink="http://www.w3.org/1999/xlink" x="0px" y="0px"
	 viewBox="0 0 500 500" style="enable-background:new 0 0 500 500;" xml:space="preserve">
<style type="text/css">
	.st0{fill:#A41F35;}
	.st1{fill:#FFFFFF;}
	.st2{fill:#0E0F17;}
</style>
<g id="XMLID_1_">
	<rect id="XMLID_3_" x="67.5" y="222.9" class="st0" width="47.1" height="54.2"/>
	<polygon id="XMLID_4_" class="st1" points="107.6,226.8 71.1,226.8 71.1,243 74.6,243 74.6,230 107.6,230 107.6,242.7 110.8,242.7 
		110.8,226.8 	"/>
	<polygon id="XMLID_5_" class="st1" points="80,262.9 80,266.1 89.1,266.1 89.1,234 78.4,234 78.4,242.9 81.8,242.9 81.8,237.4 
		85.8,237.4 85.8,262.9 	"/>
	<polygon id="XMLID_6_" class="st1" points="96.5,234 93.1,234 93.1,266.1 102.2,266.1 102.2,262.8 96.5,262.8 96.5,237.4 
		100.4,237.4 100.4,242.9 103.7,242.9 103.7,234 	"/>
	<rect id="XMLID_7_" x="80" y="270" class="st1" width="22.2" height="3.2"/>
	<path id="XMLID_8_" class="st2" d="M123.9,247.4c-0.2-0.8,0-1.3,0.4-1.3c0.6,0,0.6,0.4,0.8,1.3c0.5,1.9,2.9,6.1,8.5,6.1
		c3.9,0,7.6-2.1,7.6-6.3c0-7.9-16.5-3.5-16.5-14.1c0-5.2,4.4-7.7,9-7.7c4.9,0,6.3,1.5,6.8,1.5c0.3,0,0.5-0.5,0.9-0.5
		c0.2,0,0.5,0.2,0.5,0.6l0.6,5.5c0.1,0.3,0,0.6-0.5,0.6c-0.5,0-0.7-0.8-0.9-1.2c-1.2-3.5-4.2-5.2-7.7-5.2c-3.2,0-6.7,1.5-6.7,5.2
		c0,7.6,16.5,3.2,16.5,14.4c0,3.4-2.4,8.6-11.6,8.6c-3,0-6.7-1.5-6.9-2.3L123.9,247.4z"/>
	<path id="XMLID_9_" class="st2" d="M145.8,246.2c0-5.1,4-9.2,9.2-9.2c2.1,0,4.8,0.5,5,1.4c0.1,0.9,0,1.9,0,2.5
		c0,0.5-0.1,0.8-0.3,0.8c-0.5,0-0.9-0.8-1-0.9c-1.4-1.9-3.1-2.5-5-2.5c-3.5,0-4.8,3.6-4.8,6.5c0,4.4,2.6,8,7.2,8
		c3.2,0,4.9-2.4,5.6-2.4c0.1,0,0.3,0.1,0.3,0.3c0,0.7-2.4,4.1-8,4.1C149.3,254.8,145.8,250.7,145.8,246.2"/>
	<path id="XMLID_10_" class="st2" d="M168,239.8c1.6-1.5,3.6-2.9,5.9-2.9c5.2,0,6.8,4.5,6.8,8v6.8c0,2.1,3.2,1.3,3.2,2.3
		c0,0.5-0.4,0.5-0.9,0.5c-0.7,0-1.8-0.1-3.4-0.1c-1.5,0-2.8,0.1-3.3,0.1c-0.4,0-0.7-0.1-0.7-0.4c0-0.6,2-0.6,2-2v-7.4
		c0-5.1-3.5-6-4.9-6c-1.8,0-4.8,1.6-4.8,3.7v8.5c0,3.5,3.6,2.4,3.6,3.1c0,0.5-0.2,0.5-0.7,0.5c-0.9,0-2.9-0.1-4.2-0.1
		c-1.3,0-3,0.1-3.7,0.1c-0.3,0-0.4-0.2-0.4-0.3c0-0.8,2.4-0.4,2.4-2.4v-22.9c0-2.5-3.1-1.4-3.1-2.3c0-0.3,0.1-0.4,0.3-0.4
		c3-0.6,4.3-2,5.3-2c0.2,0,0.5,0.3,0.5,0.7L168,239.8L168,239.8z"/>
	<path id="XMLID_13_" class="st2" d="M198.5,246.6c0-4.2-1.7-8.8-6.6-8.8c-4,0-5.6,3.5-5.6,6.9c0,4,1.9,9.2,6.6,9.2
		C196.4,254,198.5,251.6,198.5,246.6 M183.5,246.2c0-5,3.9-9.2,9-9.2c3.1,0,8.8,1.4,8.8,9.1c0,5-3.8,8.8-8.8,8.8
		C187.3,254.8,183.5,251.7,183.5,246.2"/>
	<path id="XMLID_16_" class="st2" d="M218.4,246.6c0-4.2-1.7-8.8-6.5-8.8c-4,0-5.6,3.5-5.6,6.9c0,4,1.9,9.2,6.6,9.2
		C216.3,254,218.4,251.6,218.4,246.6 M203.4,246.2c0-5,3.9-9.2,9-9.2c3.1,0,8.8,1.4,8.8,9.1c0,5-3.8,8.8-8.8,8.8
		C207.2,254.8,203.4,251.7,203.4,246.2"/>
	<path id="XMLID_17_" class="st2" d="M227.6,251.3c0,2.8,3.4,1.6,3.4,2.7c0,0.5-0.3,0.5-1,0.5c-0.6,0-1.8-0.1-3.7-0.1
		c-2,0-2.8,0.1-3.2,0.1c-0.3,0-0.5-0.1-0.5-0.5c0-0.6,2-0.5,2-2.2v-22.9c0-2.5-2.7-1.4-2.7-2.3c0-0.3,0.2-0.4,0.3-0.4
		c3.1-0.8,3.9-2,4.9-2c0.2,0,0.5,0.3,0.5,0.7V251.3z"/>
	<path id="XMLID_20_" class="st2" d="M255.7,246.6c0-4.2-1.8-8.8-6.6-8.8c-4,0-5.6,3.5-5.6,6.9c0,4,1.9,9.2,6.6,9.2
		C253.6,254,255.7,251.6,255.7,246.6 M240.7,246.2c0-5,3.9-9.2,9-9.2c3.1,0,8.8,1.4,8.8,9.1c0,5-3.8,8.8-8.8,8.8
		C244.5,254.8,240.7,251.7,240.7,246.2"/>
	<path id="XMLID_21_" class="st2" d="M262.7,237.5c0-3,0.8-6,2.4-8.6c1-1.5,3.7-4.4,6.6-4.4c0.6,0,1.7,0.2,1.7,0.8
		c0,0.8-0.2,2.9-0.6,2.9c-0.6,0-0.2-1.7-2.8-1.7c-2.2,0-3.6,2.4-4,4.2c-0.4,2.1-0.3,4.5-0.3,6.7h3.1c1,0,1.5-0.7,1.6-0.7
		c0.2,0,0.3,0.2,0.3,0.3c0,0.1-0.1,0.3-0.2,0.5l-0.8,1.5h-3.9v12.3c0,2.6,2.8,1.7,2.8,2.5c0,0.5-0.5,0.4-0.9,0.4h-6.3
		c-0.2,0-0.6,0.1-0.6-0.3c0-0.8,1.9-0.4,1.9-2.4v-12.6H260l0.2-1.7H262.7z"/>
	<path id="XMLID_22_" class="st2" d="M312.4,250.8c0.2,3.5,3.2,1.9,3.2,3.4c0,0.3-0.5,0.3-1,0.3c-0.8,0-2.2-0.1-3.8-0.1
		c-1.3,0-2.6,0.1-3.6,0.1c-0.4,0-0.5-0.2-0.5-0.3c0-1.2,2.6-0.3,2.5-3.3l-0.4-15.7c0-1-0.2-1.6-0.5-1.6c-0.3,0-0.6,0.3-1,1.2
		l-8.4,17.2c-0.2,0.3-0.9,2-1.3,2c-0.4,0-0.7-0.9-0.9-1.2l-8.6-18.1c-0.1-0.3-0.3-0.5-0.5-0.5c-0.1,0-0.3,0.3-0.3,0.7l-0.5,14.2
		c-0.2,5.4,3.6,3.6,3.6,5.1c0,0.4-0.4,0.4-1,0.4c-0.6,0-2.4-0.1-3.6-0.1c-2.1,0-2.8,0.1-3.5,0.1c-0.3,0-0.5-0.2-0.5-0.4
		c0-1.4,2.6,0.3,2.9-4c0.5-6.6,1-10.9,1-15.2c0-9.6-3.9-7.3-3.9-8.6c0-0.3,0.3-0.4,0.7-0.4c0.7,0,1.4,0.1,2.2,0.1
		c0.7,0,1.5-0.1,2.2-0.1c0.6,0,0.7,0.7,0.9,1.1l9.7,20.7c0.5,0.8,0.6,1.2,0.9,1.2c0.2,0,0.6-0.8,1.3-2.2l9.7-19.4
		c0.3-0.4,0.6-1.4,1.1-1.4c0.4,0,1.7,0.1,1.9,0.1c0.9,0,1.3-0.1,1.9-0.1c0.2,0,0.4,0.2,0.4,0.4c0,1.4-3.2-0.4-3.1,4.4L312.4,250.8z"
		/>
	<path id="XMLID_25_" class="st2" d="M328.9,243c0.6,0,0.8-0.2,0.8-0.8c0-2.3-2.3-4.3-4.5-4.3c-2.5,0-4.3,2.9-4.3,5.1H328.9z
		 M320.9,244.1c0,6.7,4.1,8.7,6.5,8.7c3.5,0,4.8-2.1,5.7-2.1c0.2,0,0.2,0.2,0.2,0.3c0,0.9-3.5,3.9-7.2,3.9c-6.1,0-8.2-5.7-8.2-8.4
		c0-5.2,2.9-9.5,8-9.5c5,0,7.2,4.8,7.2,6.4c0,0.8-0.5,0.7-1.4,0.7H320.9z"/>
	<path id="XMLID_28_" class="st2" d="M348.5,242.6c0-3-2.4-4.7-5.4-4.7c-3.8,0-5.5,3.6-5.5,6.9c0,3.4,2.4,8.2,6.3,8.2
		c3.4,0,4.6-2,4.6-3.6V242.6z M348.5,228.8c0-2.5-3.2-1.4-3.2-2.3c0-0.3,0.2-0.4,0.4-0.4c3.1-0.8,4.4-2,5.3-2c0.3,0,0.5,0.3,0.5,0.7
		v27.8c0,0.5,0.8,0.8,2.2,1c0.3,0,0.5,0,0.5,0.3c0,0.3-1.1,0.6-2.6,0.6c-1.1,0-2.2,0.3-2.6,0.3c-0.3,0-0.5-0.3-0.5-0.6v-2.3h-0.1
		c-1.4,1.8-3.6,2.9-6,2.9c-4.4,0-7.2-4.1-7.2-8.3c0-4.8,3.4-9.6,8.5-9.6c1.7,0,3.4,0.4,4.8,1.4L348.5,228.8L348.5,228.8z"/>
	<path id="XMLID_31_" class="st2" d="M361.6,230.7c0,0.5-1.1,2.1-1.7,2.1c-0.5,0-1.7-1.7-1.7-2.1c0-0.4,1.3-2.1,1.7-2.1
		C360.5,228.6,361.6,230.2,361.6,230.7 M358.5,241.3c0-2.4-2.3-1.4-2.3-2.2c0-0.3,0.2-0.4,0.4-0.4c2.6-0.8,3.4-2,4.3-2
		c0.2,0,0.5,0.3,0.5,0.6v14.6c0,2,3.2,1.2,3.2,2.2c0,0.3-0.2,0.4-0.7,0.4c-0.9,0-2.2-0.1-3.8-0.1c-1.3,0-2.3,0.1-2.8,0.1
		c-0.3,0-0.6,0-0.6-0.4c0-1,1.8,0.5,1.8-3.1V241.3z"/>
	<path id="XMLID_32_" class="st2" d="M366.2,246.2c0-5.1,4-9.2,9.2-9.2c2,0,4.8,0.5,4.9,1.4c0.1,0.9,0.1,1.9,0.1,2.5
		c0,0.5-0.1,0.8-0.3,0.8c-0.4,0-0.9-0.8-1-0.9c-1.4-1.9-3.2-2.5-5.1-2.5c-3.4,0-4.8,3.6-4.8,6.5c0,4.4,2.6,8,7.2,8
		c3.1,0,4.9-2.4,5.5-2.4c0.2,0,0.3,0.1,0.3,0.3c0,0.7-2.4,4.1-8,4.1C369.6,254.8,366.2,250.7,366.2,246.2"/>
	<path id="XMLID_35_" class="st2" d="M390.2,230.7c0,0.5-1.2,2.1-1.7,2.1c-0.5,0-1.7-1.7-1.7-2.1c0-0.4,1.2-2.1,1.7-2.1
		C389,228.6,390.2,230.2,390.2,230.7 M387,241.3c0-2.4-2.2-1.4-2.2-2.2c0-0.3,0.2-0.4,0.3-0.4c2.6-0.8,3.4-2,4.4-2
		c0.2,0,0.5,0.3,0.5,0.6v14.6c0,2,3.2,1.2,3.2,2.2c0,0.3-0.3,0.4-0.8,0.4c-0.9,0-2.1-0.1-3.8-0.1c-1.3,0-2.4,0.1-2.8,0.1
		c-0.3,0-0.6,0-0.6-0.4c0-1,1.8,0.5,1.8-3.1V241.3z"/>
	<path id="XMLID_36_" class="st2" d="M400.1,251.3c0,2.8,3.6,1.6,3.6,2.7c0,0.5-0.3,0.5-0.9,0.5c-0.7,0-1.5-0.1-3.9-0.1
		c-2.2,0-3,0.1-3.5,0.1s-0.7,0-0.7-0.4c0-0.8,2.4,0,2.4-2.6v-10.2c0-2.4-3-1.4-3-2.2c0-0.3,0.2-0.4,0.3-0.4c3.4-0.8,4.2-2,5.1-2
		c0.3,0,0.5,0.3,0.5,0.6v2.7c-0.1,0.5,1.9-3,5.9-3c5.5,0,6.7,4.5,6.7,7.5v6.8c0,2.8,3.2,1.6,3.2,2.7c0,0.5-0.3,0.5-0.7,0.5
		c-0.5,0-1.5-0.1-3.5-0.1c-1.5,0-2.4,0.1-2.9,0.1c-0.5,0-0.7,0-0.7-0.4c0-0.8,1.8,0,1.8-2.6v-7.6c0-2-1.5-5.1-4.8-5.1
		c-3.4,0-4.8,2.5-4.8,3.1L400.1,251.3L400.1,251.3z"/>
	<path id="XMLID_39_" class="st2" d="M428.1,243c0.6,0,0.9-0.2,0.9-0.8c0-2.3-2.3-4.3-4.6-4.3c-2.5,0-4.3,2.9-4.3,5.1H428.1z
		 M420.1,244.1c0,6.7,4,8.7,6.5,8.7c3.5,0,4.8-2.1,5.7-2.1c0.2,0,0.2,0.2,0.2,0.3c0,0.9-3.5,3.9-7.2,3.9c-6.1,0-8.2-5.7-8.2-8.4
		c0-5.2,2.9-9.5,8-9.5c5,0,7.2,4.8,7.2,6.4c0,0.8-0.5,0.7-1.4,0.7H420.1z"/>
	<path id="XMLID_40_" class="st2" d="M129.3,267.4c0-0.5-0.2-0.9-0.7-0.9h-1.9c-1.8,0-1.3,2.2-1.9,2.2c-0.2,0-0.3-0.2-0.3-0.3
		c0-0.2,0.4-2,0.4-2.6c0-0.1,0.2-0.2,0.3-0.2c0.4,0,1.6,0.2,3.1,0.2h3.2c0.6,0,1.4,0,2-0.1c0.7,0,1.3-0.1,1.7-0.1
		c0.2,0,0.3,0.1,0.3,0.3c0,0.2,0.3,1.9,0.3,2.1c0,0.2-0.1,0.3-0.3,0.3c-0.4,0-0.3-1.8-1.9-1.8h-1.8c-0.6,0-0.7,0.3-0.7,0.7v7.5
		c0,1.6,2,1,2,1.6c0,0.2-0.1,0.3-0.5,0.3c-0.7,0-1.4-0.1-2.3-0.1c-1.1,0-1.8,0.1-2.6,0.1c-0.2,0-0.3-0.1-0.3-0.3
		c0-0.5,1.9,0,1.9-1.5L129.3,267.4L129.3,267.4z"/>
	<path id="XMLID_41_" class="st2" d="M140.1,274.6c0,0.8,0.6,1,1.9,1c3.2,0,3.8-1.9,4.1-1.9c0.1,0,0.2,0.2,0.2,0.3
		c0,0.3-0.3,1.3-1,1.9c-0.5,0.3-0.8,0.4-1.9,0.4c-0.9,0-1.8-0.1-3-0.1s-2.4,0.1-3.2,0.1c-0.2,0-0.5-0.1-0.5-0.2c0-0.6,1.5,0,1.5-1.5
		v-7.5c0-1.4-1.6-1-1.6-1.5c0-0.2,0.2-0.2,0.4-0.2c1,0,2.5,0.1,4,0.1c1.6,0,3.8-0.1,4.1-0.1c0.1,0,0.2,0.1,0.2,0.2v2.1
		c0,0.3-0.1,0.4-0.3,0.4c-0.2,0-0.3-0.4-0.3-0.7c-0.2-0.9-1.1-1.3-2.9-1.3c-1.3,0-1.9,0-1.9,0.8v3.2h2.3c1.7,0,1.3-1.4,1.8-1.4
		c0.2,0,0.2,0.1,0.2,0.3c0,0.3-0.1,0.8-0.1,1.3c0,0.8,0.1,1.4,0.1,2c0,0.3-0.1,0.3-0.3,0.3c-0.5,0-0.1-1.6-1.8-1.6h-2.3V274.6z"/>
	<path id="XMLID_42_" class="st2" d="M154.4,276c-0.1,0.2-0.2,0.3-0.3,0.3c-0.1,0-0.2-0.1-0.3-0.3l-3.5-7.4h-0.1
		c-0.1,0.8-0.2,2-0.2,5.2c0,1.4,0.2,1.8,1,2.1c0.3,0.1,0.6,0.1,0.6,0.3c0,0.2-0.1,0.2-0.3,0.2c-0.6,0-1.1-0.1-1.7-0.1
		c-0.7,0-1.5,0.1-1.9,0.1c-0.1,0-0.2,0-0.2-0.2c0-0.3,1.2-0.2,1.4-1.3c0.2-1.3,0.3-5.2,0.3-7.1c0-2.1-1.9-1.5-1.9-2.1
		c0-0.2,0.1-0.3,0.3-0.3c0.5,0,0.7,0.1,1.2,0.1c0.6,0,1-0.1,1.4-0.1c0.2,0,0.3,0.1,0.4,0.3l3.9,7.9h0.2l3.9-7.6
		c0.2-0.3,0.3-0.5,0.5-0.5h1c0.4,0,0.7-0.1,0.9-0.1h0.5c0.1,0,0.2,0.1,0.2,0.3c0,0.5-1.6,0-1.6,1.8c0,1.9,0.2,4.9,0.2,6.9
		c0,1.8,1.7,1.3,1.7,1.8c0,0.1-0.1,0.2-0.2,0.2c-0.6,0-1.4-0.1-2.2-0.1c-0.7,0-1.3,0.1-1.8,0.1c-0.3,0-0.5,0-0.5-0.2
		c0-0.5,1.2-0.3,1.2-1.6v-6.3l-0.2,0.1L154.4,276z"/>
	<path id="XMLID_43_" class="st2" d="M165.1,267.6c0-1.8-2-1.2-2-1.8c0-0.2,0.3-0.3,0.9-0.3c0.6,0,1.3,0.1,1.8,0.1
		c0.6,0,1.1-0.1,1.7-0.1c0.5-0.1,1.1-0.1,1.6-0.1c2.7,0,3.8,1.6,3.8,3c0,1.9-1.5,3.2-3.7,3.2c-1.1,0-1.8-0.3-1.8-0.6
		c0-0.2,0.1-0.2,0.3-0.2h1c1.6,0,2.3-0.8,2.3-2.2c0-1.9-1.7-2.5-2.9-2.5c-0.7,0-1.2,0.2-1.2,1.2v7.5c0,1.3,1.9,0.9,1.9,1.4
		c0,0.1-0.1,0.2-0.3,0.2c-0.7,0-1.4-0.1-2.2-0.1c-0.8,0-1.7,0.1-2.3,0.1c-0.2,0-0.3-0.1-0.3-0.2c0-0.6,1.4-0.1,1.4-1.3L165.1,267.6
		L165.1,267.6z"/>
	<path id="XMLID_44_" class="st2" d="M175.5,267.1c0-1.3-1.8-0.8-1.8-1.4c0-0.2,0.1-0.3,0.3-0.3c0.6,0,1.3,0.1,2.3,0.1
		c1,0,1.7-0.1,2.1-0.1c0.2,0,0.3,0.1,0.3,0.2c0,0.5-1.4,0.3-1.4,1.6v7.7c0,0.6,0.3,0.8,1.6,0.8c3.5,0,3.9-1.9,4.2-1.9
		c0.2,0,0.3,0.1,0.3,0.3c0,2.3-2,2.3-3,2.3c-0.5,0-1,0-1.6-0.1c-0.6,0-1.3-0.1-1.7-0.1c-0.6,0-1.1,0-1.5,0.1h-0.9
		c-0.3,0-0.5,0-0.5-0.2c0-0.4,1.4-0.3,1.4-1.4L175.5,267.1L175.5,267.1z"/>
	<path id="XMLID_45_" class="st2" d="M186.8,274.6c0,0.8,0.6,1,1.9,1c3.3,0,3.8-1.9,4.2-1.9c0.1,0,0.2,0.2,0.2,0.3
		c0,0.3-0.3,1.3-1,1.9c-0.4,0.3-0.8,0.4-1.9,0.4c-0.9,0-1.8-0.1-3-0.1c-1.1,0-2.4,0.1-3.2,0.1c-0.2,0-0.5-0.1-0.5-0.2
		c0-0.6,1.5,0,1.5-1.5v-7.5c0-1.4-1.6-1-1.6-1.5c0-0.2,0.2-0.2,0.4-0.2c1,0,2.6,0.1,4,0.1c1.7,0,3.8-0.1,4.1-0.1
		c0.2,0,0.3,0.1,0.3,0.2c0,0.3-0.1,0.7-0.1,2.1c0,0.3-0.1,0.4-0.2,0.4c-0.2,0-0.3-0.4-0.3-0.7c-0.2-0.9-1-1.3-2.9-1.3
		c-1.2,0-1.9,0-1.9,0.8v3.2h2.2c1.8,0,1.3-1.4,1.8-1.4c0.2,0,0.3,0.1,0.3,0.3c0,0.3-0.1,0.8-0.1,1.3v2c0,0.3-0.1,0.3-0.3,0.3
		c-0.5,0-0.1-1.6-1.7-1.6h-2.3V274.6z"/>
	<path id="XMLID_46_" class="st2" d="M210.9,267.4c0-1.7-2-1.2-2-1.7c0-0.2,0.1-0.3,0.3-0.3c0.4,0,1.1,0.1,1.8,0.1
		c0.7,0,1.4-0.1,1.7-0.1c0.2,0,0.2,0,0.2,0.2c0,0.4-1.1,0.1-1.2,1.5l-0.2,4.8c-0.1,2.5-1.4,4.5-4.9,4.5c-2.7,0-4.8-1-4.8-3.7v-5.2
		c0-0.9-0.2-1.2-0.9-1.4c-0.6-0.2-1-0.3-1-0.4c0-0.1,0.1-0.2,0.3-0.2c0.7,0,1.4,0.1,2.2,0.1c0.8,0,1.6-0.1,2.3-0.1
		c0.2,0,0.2,0,0.2,0.2c0,0.3-0.5,0.3-0.9,0.4c-0.5,0.3-0.6,0.6-0.6,1.3v5.1c0,2,1.1,3.3,3.1,3.3c3.3,0,4.1-1.7,4.1-4.8V267.4z"/>
	<path id="XMLID_47_" class="st2" d="M225,267.8c0-2.1-2.2-1.5-2.2-2.1c0-0.2,0.2-0.2,0.4-0.2c0.5,0,1.3,0.1,2,0.1
		c0.9,0,1.5-0.1,2-0.1c0.2,0,0.2,0.1,0.2,0.2c0,0.5-1.6,0-1.6,1.9v8.6c0,0.3-0.1,0.3-0.4,0.3c-0.2,0-0.3-0.1-0.8-0.5l-7.4-8h-0.2
		v6.6c0,1.7,2.1,1,2.1,1.7c0,0.2-0.2,0.2-0.5,0.2c-0.6,0-1.4-0.1-2-0.1c-0.6,0-1.3,0.1-1.9,0.1c-0.2,0-0.3-0.1-0.3-0.2
		c0-0.7,1.7,0,1.7-2.5v-6.1c0-1.9-2.1-1.4-2.1-1.9c0-0.2,0.1-0.2,0.3-0.2c0.3,0,0.6,0.1,1.3,0.1c0.5,0,0.9-0.1,1.3-0.1
		c0.3,0,0.6,0.1,0.8,0.3l7.1,7.8l0.2-0.2L225,267.8L225,267.8z"/>
	<path id="XMLID_48_" class="st2" d="M230.2,267c0-1.3-1.9-0.9-1.9-1.4c0-0.1,0.1-0.2,0.3-0.2c0.7,0,1.4,0.1,2.2,0.1
		c0.7,0,1.6-0.1,2.3-0.1c0.2,0,0.2,0,0.2,0.2c0,0.6-1.4,0.1-1.4,1.2v8c0,1.3,1.9,0.9,1.9,1.4c0,0.1-0.1,0.2-0.3,0.2
		c-0.6,0-1.4-0.1-2.2-0.1c-0.7,0-1.6,0.1-2.3,0.1c-0.2,0-0.2-0.1-0.2-0.2c0-0.6,1.4-0.1,1.4-1.3L230.2,267L230.2,267z"/>
	<path id="XMLID_49_" class="st2" d="M235.5,267c-0.6-1.4-1.4-0.9-1.4-1.4c0-0.2,0.1-0.2,0.2-0.2c0.3,0,1.3,0.1,1.9,0.1
		c0.6,0,1.4-0.1,1.8-0.1c0.2,0,0.3,0,0.3,0.2c0,0.4-1,0.2-1,1c0,0.3,0.6,1.5,1.7,4.4c1.1,2.7,1.1,2.9,1.4,2.9c0.2,0,0.5-0.3,2-3.7
		c0.9-2,1.3-3,1.3-3.5c0-0.9-1.3-0.6-1.3-1.1c0-0.2,0.2-0.2,0.3-0.2c0.5,0,1,0.1,1.5,0.1c0.8,0,1.4-0.1,1.7-0.1c0.2,0,0.3,0,0.3,0.2
		c0,0.3-0.8,0.1-1.5,1.5l-3.7,7.4c-0.9,1.7-1,1.9-1.3,1.9c-0.3,0-0.3-0.1-0.6-0.8L235.5,267z"/>
	<path id="XMLID_50_" class="st2" d="M250.2,274.6c0,0.8,0.6,1,1.9,1c3.3,0,3.8-1.9,4.2-1.9c0.1,0,0.2,0.2,0.2,0.3
		c0,0.3-0.3,1.3-1,1.9c-0.4,0.3-0.8,0.4-1.8,0.4c-0.9,0-1.8-0.1-3-0.1c-1.1,0-2.4,0.1-3.2,0.1c-0.2,0-0.5-0.1-0.5-0.2
		c0-0.6,1.5,0,1.5-1.5v-7.5c0-1.4-1.6-1-1.6-1.5c0-0.2,0.2-0.2,0.4-0.2c1,0,2.6,0.1,4,0.1c1.7,0,3.8-0.1,4.1-0.1
		c0.2,0,0.3,0.1,0.3,0.2c0,0.3-0.1,0.7-0.1,2.1c0,0.3-0.1,0.4-0.2,0.4c-0.2,0-0.3-0.4-0.3-0.7c-0.1-0.9-1-1.3-2.8-1.3
		c-1.3,0-1.9,0-1.9,0.8v3.2h2.2c1.8,0,1.3-1.4,1.8-1.4c0.2,0,0.3,0.1,0.3,0.3c0,0.3-0.1,0.8-0.1,1.3c0,0.8,0.1,1.4,0.1,2
		c0,0.3-0.1,0.3-0.3,0.3c-0.5,0-0.1-1.6-1.7-1.6h-2.3L250.2,274.6L250.2,274.6z"/>
	<path id="XMLID_53_" class="st2" d="M260.5,270.7h1.7c1.8,0,2.6-0.7,2.6-2c0-2.3-2.3-2.5-3.2-2.5c-0.7,0-1,0.2-1,1L260.5,270.7
		L260.5,270.7z M260.5,274.9c0,1.3,1.8,0.9,1.8,1.4c0,0.1-0.1,0.2-0.3,0.2c-0.6,0-1.4-0.1-2.1-0.1c-0.8,0-1.6,0.1-2.4,0.1
		c-0.1,0-0.2-0.1-0.2-0.2c0-0.6,1.5-0.1,1.5-1.6v-7.1c0-2-1.8-1.2-1.8-1.8c0-0.3,0.2-0.3,0.5-0.3c0.5,0,1.2,0.1,2,0.1
		c1.3,0,2.2-0.1,3-0.1c3.1,0,4,1.5,4,2.9c0,1.8-1.4,2.3-2.4,2.5l2.9,3.9c0.5,0.7,0.9,0.8,1.4,0.8c0.5,0,0.6,0,0.6,0.3
		c0,0.3-0.3,0.4-0.8,0.4h-1.4c-0.3,0-0.9-0.1-1.3-0.7l-2.2-3.1c-0.7-1.1-0.9-1.2-1.5-1.2h-1.3L260.5,274.9L260.5,274.9z"/>
	<path id="XMLID_54_" class="st2" d="M275,265.7c0.5,0.2,0.9,0.3,1.1,0.3c0.5,0,0.3-0.3,0.6-0.3c0.1,0,0.1,0.1,0.1,0.3v1.4v1.7
		c0,0.2-0.1,0.3-0.2,0.3c-0.1,0-0.2-0.3-0.3-0.6c-0.3-0.8-0.9-2.7-3-2.7c-1.3,0-2.2,0.7-2.2,1.8c0,2.5,5.9,1.8,5.9,5.3
		c0,1.9-1.5,3.4-4,3.4c-1.2,0-2-0.2-2.9-0.6c-0.3-0.2-0.3-0.3-0.4-0.7c-0.1-0.8-0.5-2-0.5-2.5c0-0.3,0.1-0.3,0.3-0.3
		c0.2,0,0.3,0.1,0.5,0.6c0.3,1,1.5,2.8,3.3,2.8c1.3,0,2.4-0.7,2.4-1.9c0-2.7-6-2-6-5.4c0-1.5,1.3-3.1,3.5-3.1
		C273.8,265.3,274.5,265.5,275,265.7"/>
	<path id="XMLID_55_" class="st2" d="M280.2,267c0-1.3-1.9-0.9-1.9-1.4c0-0.1,0.1-0.2,0.3-0.2c0.7,0,1.4,0.1,2.2,0.1
		c0.8,0,1.6-0.1,2.3-0.1c0.2,0,0.2,0,0.2,0.2c0,0.6-1.4,0.1-1.4,1.2v8c0,1.3,1.9,0.9,1.9,1.4c0,0.1-0.1,0.2-0.3,0.2
		c-0.6,0-1.4-0.1-2.2-0.1c-0.7,0-1.6,0.1-2.3,0.1c-0.2,0-0.2-0.1-0.2-0.2c0-0.6,1.4-0.1,1.4-1.3L280.2,267L280.2,267z"/>
	<path id="XMLID_56_" class="st2" d="M289.3,267.4c0-0.5-0.2-0.9-0.7-0.9h-1.9c-1.7,0-1.3,2.2-1.9,2.2c-0.2,0-0.3-0.2-0.3-0.3
		c0-0.2,0.4-2,0.4-2.6c0-0.1,0.2-0.2,0.3-0.2c0.4,0,1.7,0.2,3.1,0.2h3.2c0.7,0,1.4,0,2.1-0.1c0.7,0,1.3-0.1,1.7-0.1
		c0.2,0,0.3,0.1,0.3,0.3c0,0.2,0.3,1.9,0.3,2.1c0,0.2-0.1,0.3-0.3,0.3c-0.5,0-0.3-1.8-1.9-1.8h-1.8c-0.6,0-0.7,0.3-0.7,0.7v7.5
		c0,1.6,2,1,2,1.6c0,0.2-0.2,0.3-0.5,0.3c-0.7,0-1.4-0.1-2.3-0.1c-1.1,0-1.8,0.1-2.6,0.1c-0.2,0-0.3-0.1-0.3-0.3
		c0-0.5,1.9,0,1.9-1.5L289.3,267.4L289.3,267.4z"/>
	<path id="XMLID_57_" class="st2" d="M300.5,271.7l-2.6-4.5c-0.8-1.4-1.8-1.1-1.8-1.4c0-0.2,0.1-0.3,0.3-0.3c0.7,0,1.4,0.1,2.2,0.1
		c0.6,0,1.1-0.1,1.6-0.1c0.3,0,0.3,0.1,0.3,0.2c0,0.3-0.8,0.3-0.8,0.9c0,0.6,2,4,2.2,4c0.2,0,2.1-3,2.1-3.7c0-1.1-1.5-0.8-1.5-1.2
		c0-0.2,0.1-0.2,0.3-0.2c0.3,0,1.3,0.1,1.9,0.1c0.4,0,1.1-0.1,1.5-0.1c0.2,0,0.2,0,0.2,0.2c0,0.3-0.7,0.2-1.3,1.2l-2.8,4.7v3.5
		c0,1.2,1.4,0.8,1.4,1.3c0,0.2-0.1,0.2-0.3,0.2c-0.5,0-1.2-0.1-1.9-0.1c-0.8,0-1.6,0.1-2.2,0.1c-0.2,0-0.3,0-0.3-0.2
		c0-0.5,1.5-0.3,1.5-1.7L300.5,271.7L300.5,271.7z"/>
	<path id="XMLID_62_" class="st2" d="M311.1,267.9c0.6,0,1.1-0.1,1.1-0.8c0-0.5-0.3-0.8-0.8-0.8c-0.4,0-0.5,0-0.5,0.4v1.2
		L311.1,267.9L311.1,267.9z M310.9,269.1c0,0.5,0.1,0.4,0.5,0.5v0.2h-1.5v-0.2c0.3,0,0.5,0,0.5-0.3v-2.7c-0.1-0.3-0.2-0.3-0.5-0.3
		v-0.2h1.5c0.6,0,1.4,0.1,1.4,0.8c0,0.6-0.5,0.9-1,1c0.7,0.1,0.7,1.6,1.4,1.6v0.2H313c-0.6,0-0.7,0-1-0.8c-0.2-0.5-0.3-0.8-0.9-0.8
		h-0.2V269.1z M314.3,268.1c0-1.6-1.2-2.8-2.8-2.8c-1.5,0-2.7,1.2-2.7,2.8c0,1.4,1.2,2.7,2.7,2.7C313,270.8,314.3,269.6,314.3,268.1
		 M308.4,268.1c0-1.7,1.3-3.1,3.1-3.1c1.7,0,3.1,1.4,3.1,3c0,1.8-1.4,3.1-3.1,3.1C309.8,271.2,308.4,269.8,308.4,268.1"/>
</g>
</svg>
