<svg xmlns="http://www.w3.org/2000/svg" xmlns:xlink="http://www.w3.org/1999/xlink" width="1080" zoomAndPan="magnify" viewBox="0 0 810 809.999993" height="1080" preserveAspectRatio="xMidYMid meet" version="1.0"><path fill="#a41f35" d="M 286.539062 386.832031 L 316.921875 386.832031 L 316.921875 421.789062 L 286.539062 421.789062 Z M 286.539062 386.832031 " fill-opacity="1" fill-rule="nonzero"/><path fill="#ffffff" d="M 312.40625 389.347656 L 288.863281 389.347656 L 288.863281 399.792969 L 291.121094 399.792969 L 291.121094 391.410156 L 312.40625 391.410156 L 312.40625 399.601562 L 314.46875 399.601562 L 314.46875 389.347656 Z M 312.40625 389.347656 " fill-opacity="1" fill-rule="nonzero"/><path fill="#ffffff" d="M 294.601562 412.628906 L 294.601562 414.695312 L 300.472656 414.695312 L 300.472656 393.988281 L 293.570312 393.988281 L 293.570312 399.730469 L 295.765625 399.730469 L 295.765625 396.183594 L 298.34375 396.183594 L 298.34375 412.628906 Z M 294.601562 412.628906 " fill-opacity="1" fill-rule="nonzero"/><path fill="#ffffff" d="M 305.246094 393.988281 L 303.050781 393.988281 L 303.050781 414.695312 L 308.921875 414.695312 L 308.921875 412.566406 L 305.246094 412.566406 L 305.246094 396.183594 L 307.761719 396.183594 L 307.761719 399.730469 L 309.890625 399.730469 L 309.890625 393.988281 Z M 305.246094 393.988281 " fill-opacity="1" fill-rule="nonzero"/><path fill="#ffffff" d="M 294.601562 417.210938 L 308.921875 417.210938 L 308.921875 419.273438 L 294.601562 419.273438 Z M 294.601562 417.210938 " fill-opacity="1" fill-rule="nonzero"/><path fill="#0e0f17" d="M 322.917969 402.632812 C 322.789062 402.117188 322.917969 401.792969 323.175781 401.792969 C 323.5625 401.792969 323.5625 402.050781 323.691406 402.632812 C 324.015625 403.859375 325.5625 406.566406 329.175781 406.566406 C 331.691406 406.566406 334.078125 405.210938 334.078125 402.503906 C 334.078125 397.410156 323.433594 400.246094 323.433594 393.410156 C 323.433594 390.054688 326.273438 388.441406 329.238281 388.441406 C 332.398438 388.441406 333.304688 389.410156 333.625 389.410156 C 333.820312 389.410156 333.949219 389.085938 334.207031 389.085938 C 334.335938 389.085938 334.527344 389.21875 334.527344 389.476562 L 334.914062 393.023438 C 334.980469 393.214844 334.914062 393.410156 334.59375 393.410156 C 334.269531 393.410156 334.140625 392.894531 334.011719 392.636719 C 333.238281 390.378906 331.304688 389.28125 329.046875 389.28125 C 326.980469 389.28125 324.726562 390.25 324.726562 392.636719 C 324.726562 397.539062 335.367188 394.699219 335.367188 401.921875 C 335.367188 404.117188 333.820312 407.46875 327.886719 407.46875 C 325.949219 407.46875 323.5625 406.503906 323.433594 405.988281 Z M 322.917969 402.632812 " fill-opacity="1" fill-rule="nonzero"/><path fill="#0e0f17" d="M 337.042969 401.859375 C 337.042969 398.570312 339.625 395.925781 342.976562 395.925781 C 344.332031 395.925781 346.074219 396.246094 346.203125 396.828125 C 346.269531 397.410156 346.203125 398.054688 346.203125 398.441406 C 346.203125 398.761719 346.140625 398.957031 346.007812 398.957031 C 345.6875 398.957031 345.429688 398.441406 345.363281 398.375 C 344.460938 397.148438 343.363281 396.761719 342.140625 396.761719 C 339.882812 396.761719 339.042969 399.085938 339.042969 400.957031 C 339.042969 403.792969 340.71875 406.117188 343.6875 406.117188 C 345.75 406.117188 346.847656 404.566406 347.300781 404.566406 C 347.363281 404.566406 347.492188 404.632812 347.492188 404.761719 C 347.492188 405.210938 345.945312 407.40625 342.332031 407.40625 C 339.300781 407.40625 337.042969 404.761719 337.042969 401.859375 " fill-opacity="1" fill-rule="nonzero"/><path fill="#0e0f17" d="M 351.363281 397.730469 C 352.394531 396.761719 353.683594 395.859375 355.167969 395.859375 C 358.523438 395.859375 359.554688 398.761719 359.554688 401.019531 L 359.554688 405.40625 C 359.554688 406.761719 361.617188 406.246094 361.617188 406.890625 C 361.617188 407.210938 361.359375 407.210938 361.039062 407.210938 C 360.585938 407.210938 359.878906 407.148438 358.84375 407.148438 C 357.878906 407.148438 357.039062 407.210938 356.714844 407.210938 C 356.457031 407.210938 356.265625 407.148438 356.265625 406.953125 C 356.265625 406.566406 357.554688 406.566406 357.554688 405.664062 L 357.554688 400.890625 C 357.554688 397.601562 355.296875 397.019531 354.394531 397.019531 C 353.234375 397.019531 351.296875 398.054688 351.296875 399.40625 L 351.296875 404.890625 C 351.296875 407.148438 353.621094 406.4375 353.621094 406.890625 C 353.621094 407.210938 353.492188 407.210938 353.167969 407.210938 C 352.589844 407.210938 351.296875 407.148438 350.460938 407.148438 C 349.621094 407.148438 348.523438 407.210938 348.074219 407.210938 C 347.878906 407.210938 347.816406 407.082031 347.816406 407.019531 C 347.816406 406.503906 349.363281 406.761719 349.363281 405.472656 L 349.363281 390.699219 C 349.363281 389.089844 347.363281 389.796875 347.363281 389.21875 C 347.363281 389.023438 347.429688 388.957031 347.558594 388.957031 C 349.492188 388.570312 350.332031 387.667969 350.976562 387.667969 C 351.105469 387.667969 351.296875 387.863281 351.296875 388.121094 Z M 351.363281 397.730469 " fill-opacity="1" fill-rule="nonzero"/><path fill="#0e0f17" d="M 371.035156 402.117188 C 371.035156 399.40625 369.9375 396.441406 366.777344 396.441406 C 364.199219 396.441406 363.167969 398.699219 363.167969 400.890625 C 363.167969 403.472656 364.390625 406.824219 367.421875 406.824219 C 369.679688 406.890625 371.035156 405.34375 371.035156 402.117188 M 361.359375 401.859375 C 361.359375 398.632812 363.875 395.925781 367.164062 395.925781 C 369.164062 395.925781 372.839844 396.828125 372.839844 401.792969 C 372.839844 405.019531 370.390625 407.46875 367.164062 407.46875 C 363.8125 407.40625 361.359375 405.40625 361.359375 401.859375 " fill-opacity="1" fill-rule="nonzero"/><path fill="#0e0f17" d="M 383.871094 402.117188 C 383.871094 399.40625 382.773438 396.441406 379.679688 396.441406 C 377.097656 396.441406 376.066406 398.699219 376.066406 400.890625 C 376.066406 403.472656 377.292969 406.824219 380.324219 406.824219 C 382.515625 406.890625 383.871094 405.34375 383.871094 402.117188 M 374.195312 401.859375 C 374.195312 398.632812 376.710938 395.925781 380 395.925781 C 382 395.925781 385.675781 396.828125 385.675781 401.792969 C 385.675781 405.019531 383.226562 407.46875 380 407.46875 C 376.648438 407.40625 374.195312 405.40625 374.195312 401.859375 " fill-opacity="1" fill-rule="nonzero"/><path fill="#0e0f17" d="M 389.804688 405.148438 C 389.804688 406.953125 392 406.179688 392 406.890625 C 392 407.210938 391.804688 407.210938 391.351562 407.210938 C 390.964844 407.210938 390.191406 407.148438 388.964844 407.148438 C 387.675781 407.148438 387.160156 407.210938 386.902344 407.210938 C 386.710938 407.210938 386.582031 407.148438 386.582031 406.890625 C 386.582031 406.503906 387.871094 406.566406 387.871094 405.472656 L 387.871094 390.699219 C 387.871094 389.085938 386.128906 389.796875 386.128906 389.21875 C 386.128906 389.023438 386.257812 388.957031 386.320312 388.957031 C 388.320312 388.441406 388.835938 387.667969 389.484375 387.667969 C 389.613281 387.667969 389.804688 387.863281 389.804688 388.121094 Z M 389.804688 405.148438 " fill-opacity="1" fill-rule="nonzero"/><path fill="#0e0f17" d="M 407.929688 402.117188 C 407.929688 399.40625 406.769531 396.441406 403.671875 396.441406 C 401.09375 396.441406 400.0625 398.699219 400.0625 400.890625 C 400.0625 403.472656 401.285156 406.824219 404.316406 406.824219 C 406.574219 406.890625 407.929688 405.34375 407.929688 402.117188 M 398.253906 401.859375 C 398.253906 398.632812 400.769531 395.925781 404.058594 395.925781 C 406.058594 395.925781 409.734375 396.828125 409.734375 401.792969 C 409.734375 405.019531 407.285156 407.46875 404.058594 407.46875 C 400.707031 407.40625 398.253906 405.40625 398.253906 401.859375 " fill-opacity="1" fill-rule="nonzero"/><path fill="#0e0f17" d="M 412.445312 396.246094 C 412.445312 394.3125 412.960938 392.378906 413.992188 390.699219 C 414.636719 389.734375 416.378906 387.863281 418.25 387.863281 C 418.636719 387.863281 419.347656 387.992188 419.347656 388.378906 C 419.347656 388.894531 419.21875 390.25 418.960938 390.25 C 418.570312 390.25 418.832031 389.152344 417.152344 389.152344 C 415.734375 389.152344 414.832031 390.699219 414.574219 391.863281 C 414.316406 393.214844 414.378906 394.765625 414.378906 396.183594 L 416.378906 396.183594 C 417.023438 396.183594 417.347656 395.730469 417.410156 395.730469 C 417.539062 395.730469 417.605469 395.859375 417.605469 395.925781 C 417.605469 395.988281 417.539062 396.117188 417.476562 396.246094 L 416.960938 397.214844 L 414.445312 397.214844 L 414.445312 405.148438 C 414.445312 406.824219 416.25 406.246094 416.25 406.761719 C 416.25 407.082031 415.925781 407.019531 415.667969 407.019531 L 411.605469 407.019531 C 411.476562 407.019531 411.21875 407.082031 411.21875 406.824219 C 411.21875 406.308594 412.445312 406.566406 412.445312 405.277344 L 412.445312 397.148438 L 410.703125 397.148438 L 410.832031 396.054688 L 412.445312 396.054688 Z M 412.445312 396.246094 " fill-opacity="1" fill-rule="nonzero"/><path fill="#0e0f17" d="M 444.5 404.824219 C 444.628906 407.082031 446.566406 406.050781 446.566406 407.019531 C 446.566406 407.210938 446.242188 407.210938 445.921875 407.210938 C 445.402344 407.210938 444.5 407.148438 443.46875 407.148438 C 442.628906 407.148438 441.792969 407.210938 441.148438 407.210938 C 440.890625 407.210938 440.824219 407.082031 440.824219 407.019531 C 440.824219 406.246094 442.5 406.824219 442.4375 404.890625 L 442.179688 394.765625 C 442.179688 394.117188 442.050781 393.730469 441.855469 393.730469 C 441.664062 393.730469 441.46875 393.925781 441.210938 394.503906 L 435.792969 405.601562 C 435.664062 405.792969 435.214844 406.890625 434.957031 406.890625 C 434.695312 406.890625 434.503906 406.308594 434.375 406.117188 L 428.828125 394.441406 C 428.761719 394.246094 428.632812 394.117188 428.503906 394.117188 C 428.441406 394.117188 428.3125 394.3125 428.3125 394.570312 L 427.988281 403.730469 C 427.859375 407.210938 430.3125 406.050781 430.3125 407.019531 C 430.3125 407.277344 430.054688 407.277344 429.667969 407.277344 C 429.277344 407.277344 428.117188 407.210938 427.34375 407.210938 C 425.988281 407.210938 425.539062 407.277344 425.085938 407.277344 C 424.894531 407.277344 424.765625 407.148438 424.765625 407.019531 C 424.765625 406.117188 426.441406 407.210938 426.632812 404.4375 C 426.957031 400.183594 427.28125 397.410156 427.28125 394.636719 C 427.28125 388.441406 424.765625 389.925781 424.765625 389.085938 C 424.765625 388.894531 424.957031 388.828125 425.214844 388.828125 C 425.667969 388.828125 426.117188 388.894531 426.632812 388.894531 C 427.085938 388.894531 427.601562 388.828125 428.054688 388.828125 C 428.441406 388.828125 428.503906 389.28125 428.632812 389.539062 L 434.890625 402.890625 C 435.214844 403.40625 435.277344 403.664062 435.472656 403.664062 C 435.601562 403.664062 435.859375 403.148438 436.308594 402.246094 L 442.566406 389.734375 C 442.757812 389.476562 442.953125 388.828125 443.277344 388.828125 C 443.535156 388.828125 444.371094 388.894531 444.5 388.894531 C 445.082031 388.894531 445.339844 388.828125 445.726562 388.828125 C 445.855469 388.828125 445.984375 388.957031 445.984375 389.085938 C 445.984375 389.992188 443.921875 388.828125 443.984375 391.925781 Z M 444.5 404.824219 " fill-opacity="1" fill-rule="nonzero"/><path fill="#0e0f17" d="M 455.144531 399.792969 C 455.53125 399.792969 455.660156 399.664062 455.660156 399.277344 C 455.660156 397.796875 454.175781 396.503906 452.757812 396.503906 C 451.144531 396.503906 449.984375 398.375 449.984375 399.792969 Z M 449.984375 400.503906 C 449.984375 404.824219 452.628906 406.117188 454.175781 406.117188 C 456.433594 406.117188 457.273438 404.761719 457.851562 404.761719 C 457.980469 404.761719 457.980469 404.890625 457.980469 404.953125 C 457.980469 405.535156 455.722656 407.46875 453.335938 407.46875 C 449.402344 407.46875 448.046875 403.792969 448.046875 402.050781 C 448.046875 398.699219 449.917969 395.925781 453.207031 395.925781 C 456.433594 395.925781 457.851562 399.019531 457.851562 400.054688 C 457.851562 400.570312 457.53125 400.503906 456.949219 400.503906 Z M 449.984375 400.503906 " fill-opacity="1" fill-rule="nonzero"/><path fill="#0e0f17" d="M 467.785156 399.535156 C 467.785156 397.601562 466.238281 396.503906 464.300781 396.503906 C 461.851562 396.503906 460.753906 398.828125 460.753906 400.957031 C 460.753906 403.148438 462.304688 406.246094 464.820312 406.246094 C 467.011719 406.246094 467.785156 404.953125 467.785156 403.921875 Z M 467.785156 390.636719 C 467.785156 389.023438 465.722656 389.734375 465.722656 389.152344 C 465.722656 388.957031 465.851562 388.894531 465.980469 388.894531 C 467.980469 388.378906 468.816406 387.605469 469.398438 387.605469 C 469.589844 387.605469 469.71875 387.796875 469.71875 388.054688 L 469.71875 405.988281 C 469.71875 406.308594 470.238281 406.503906 471.140625 406.632812 C 471.332031 406.632812 471.460938 406.632812 471.460938 406.824219 C 471.460938 407.019531 470.753906 407.210938 469.785156 407.210938 C 469.074219 407.210938 468.367188 407.40625 468.109375 407.40625 C 467.914062 407.40625 467.785156 407.210938 467.785156 407.019531 L 467.785156 405.535156 L 467.722656 405.535156 C 466.816406 406.695312 465.398438 407.40625 463.851562 407.40625 C 461.011719 407.40625 459.207031 404.761719 459.207031 402.050781 C 459.207031 398.957031 461.398438 395.859375 464.691406 395.859375 C 465.785156 395.859375 466.882812 396.117188 467.785156 396.761719 Z M 467.785156 390.636719 " fill-opacity="1" fill-rule="nonzero"/><path fill="#0e0f17" d="M 476.234375 391.863281 C 476.234375 392.183594 475.527344 393.214844 475.136719 393.214844 C 474.816406 393.214844 474.042969 392.121094 474.042969 391.863281 C 474.042969 391.601562 474.878906 390.507812 475.136719 390.507812 C 475.527344 390.507812 476.234375 391.539062 476.234375 391.863281 M 474.234375 398.699219 C 474.234375 397.148438 472.753906 397.796875 472.753906 397.28125 C 472.753906 397.085938 472.882812 397.019531 473.011719 397.019531 C 474.6875 396.503906 475.203125 395.730469 475.785156 395.730469 C 475.914062 395.730469 476.105469 395.925781 476.105469 396.117188 L 476.105469 405.535156 C 476.105469 406.824219 478.171875 406.308594 478.171875 406.953125 C 478.171875 407.148438 478.042969 407.210938 477.71875 407.210938 C 477.136719 407.210938 476.300781 407.148438 475.269531 407.148438 C 474.429688 407.148438 473.785156 407.210938 473.460938 407.210938 C 473.269531 407.210938 473.074219 407.210938 473.074219 406.953125 C 473.074219 406.308594 474.234375 407.277344 474.234375 404.953125 Z M 474.234375 398.699219 " fill-opacity="1" fill-rule="nonzero"/><path fill="#0e0f17" d="M 479.203125 401.859375 C 479.203125 398.570312 481.78125 395.925781 485.136719 395.925781 C 486.425781 395.925781 488.230469 396.246094 488.296875 396.828125 C 488.359375 397.410156 488.359375 398.054688 488.359375 398.441406 C 488.359375 398.761719 488.296875 398.957031 488.167969 398.957031 C 487.910156 398.957031 487.585938 398.441406 487.523438 398.375 C 486.621094 397.148438 485.457031 396.761719 484.234375 396.761719 C 482.039062 396.761719 481.136719 399.085938 481.136719 400.957031 C 481.136719 403.792969 482.8125 406.117188 485.78125 406.117188 C 487.78125 406.117188 488.941406 404.566406 489.328125 404.566406 C 489.457031 404.566406 489.523438 404.632812 489.523438 404.761719 C 489.523438 405.210938 487.972656 407.40625 484.363281 407.40625 C 481.394531 407.40625 479.203125 404.761719 479.203125 401.859375 " fill-opacity="1" fill-rule="nonzero"/><path fill="#0e0f17" d="M 494.683594 391.863281 C 494.683594 392.183594 493.90625 393.214844 493.585938 393.214844 C 493.261719 393.214844 492.488281 392.121094 492.488281 391.863281 C 492.488281 391.601562 493.261719 390.507812 493.585938 390.507812 C 493.90625 390.507812 494.683594 391.539062 494.683594 391.863281 M 492.617188 398.699219 C 492.617188 397.148438 491.199219 397.796875 491.199219 397.28125 C 491.199219 397.085938 491.328125 397.019531 491.394531 397.019531 C 493.070312 396.503906 493.585938 395.730469 494.230469 395.730469 C 494.359375 395.730469 494.554688 395.925781 494.554688 396.117188 L 494.554688 405.535156 C 494.554688 406.824219 496.617188 406.308594 496.617188 406.953125 C 496.617188 407.148438 496.421875 407.210938 496.101562 407.210938 C 495.519531 407.210938 494.746094 407.148438 493.648438 407.148438 C 492.8125 407.148438 492.101562 407.210938 491.84375 407.210938 C 491.652344 407.210938 491.457031 407.210938 491.457031 406.953125 C 491.457031 406.308594 492.617188 407.277344 492.617188 404.953125 Z M 492.617188 398.699219 " fill-opacity="1" fill-rule="nonzero"/><path fill="#0e0f17" d="M 501.066406 405.148438 C 501.066406 406.953125 503.390625 406.179688 503.390625 406.890625 C 503.390625 407.210938 503.195312 407.210938 502.808594 407.210938 C 502.359375 407.210938 501.839844 407.148438 500.292969 407.148438 C 498.875 407.148438 498.359375 407.210938 498.035156 407.210938 C 497.714844 407.210938 497.585938 407.210938 497.585938 406.953125 C 497.585938 406.4375 499.132812 406.953125 499.132812 405.277344 L 499.132812 398.699219 C 499.132812 397.148438 497.199219 397.796875 497.199219 397.28125 C 497.199219 397.085938 497.328125 397.019531 497.390625 397.019531 C 499.585938 396.503906 500.101562 395.730469 500.679688 395.730469 C 500.875 395.730469 501.003906 395.925781 501.003906 396.117188 L 501.003906 397.859375 C 500.9375 398.183594 502.230469 395.925781 504.808594 395.925781 C 508.355469 395.925781 509.128906 398.828125 509.128906 400.761719 L 509.128906 405.148438 C 509.128906 406.953125 511.195312 406.179688 511.195312 406.890625 C 511.195312 407.210938 511 407.210938 510.742188 407.210938 C 510.421875 407.210938 509.773438 407.148438 508.484375 407.148438 C 507.519531 407.148438 506.9375 407.210938 506.613281 407.210938 C 506.292969 407.210938 506.164062 407.210938 506.164062 406.953125 C 506.164062 406.4375 507.324219 406.953125 507.324219 405.277344 L 507.324219 400.375 C 507.324219 399.085938 506.355469 397.085938 504.226562 397.085938 C 502.035156 397.085938 501.132812 398.699219 501.132812 399.085938 Z M 501.066406 405.148438 " fill-opacity="1" fill-rule="nonzero"/><path fill="#0e0f17" d="M 519.128906 399.792969 C 519.515625 399.792969 519.707031 399.664062 519.707031 399.277344 C 519.707031 397.796875 518.226562 396.503906 516.742188 396.503906 C 515.128906 396.503906 513.96875 398.375 513.96875 399.792969 Z M 513.96875 400.503906 C 513.96875 404.824219 516.546875 406.117188 518.160156 406.117188 C 520.417969 406.117188 521.257812 404.761719 521.835938 404.761719 C 521.964844 404.761719 521.964844 404.890625 521.964844 404.953125 C 521.964844 405.535156 519.707031 407.46875 517.320312 407.46875 C 513.386719 407.46875 512.03125 403.792969 512.03125 402.050781 C 512.03125 398.699219 513.902344 395.925781 517.191406 395.925781 C 520.417969 395.925781 521.835938 399.019531 521.835938 400.054688 C 521.835938 400.570312 521.515625 400.503906 520.933594 400.503906 Z M 513.96875 400.503906 " fill-opacity="1" fill-rule="nonzero"/><path fill="#0e0f17" d="M 326.402344 415.53125 C 326.402344 415.210938 326.273438 414.953125 325.949219 414.953125 L 324.726562 414.953125 C 323.5625 414.953125 323.886719 416.371094 323.5 416.371094 C 323.371094 416.371094 323.304688 416.242188 323.304688 416.179688 C 323.304688 416.050781 323.5625 414.886719 323.5625 414.5 C 323.5625 414.4375 323.691406 414.371094 323.757812 414.371094 C 324.015625 414.371094 324.789062 414.5 325.757812 414.5 L 327.820312 414.5 C 328.207031 414.5 328.722656 414.5 329.109375 414.4375 C 329.5625 414.4375 329.949219 414.371094 330.207031 414.371094 C 330.335938 414.371094 330.402344 414.4375 330.402344 414.566406 C 330.402344 414.695312 330.59375 415.789062 330.59375 415.917969 C 330.59375 416.050781 330.53125 416.113281 330.402344 416.113281 C 330.144531 416.113281 330.207031 414.953125 329.175781 414.953125 L 328.015625 414.953125 C 327.628906 414.953125 327.5625 415.144531 327.5625 415.402344 L 327.5625 420.242188 C 327.5625 421.273438 328.851562 420.886719 328.851562 421.273438 C 328.851562 421.402344 328.789062 421.46875 328.53125 421.46875 C 328.078125 421.46875 327.628906 421.402344 327.046875 421.402344 C 326.335938 421.402344 325.886719 421.46875 325.371094 421.46875 C 325.242188 421.46875 325.175781 421.402344 325.175781 421.273438 C 325.175781 420.949219 326.402344 421.273438 326.402344 420.304688 Z M 326.402344 415.53125 " fill-opacity="1" fill-rule="nonzero"/><path fill="#0e0f17" d="M 333.367188 420.175781 C 333.367188 420.691406 333.753906 420.820312 334.59375 420.820312 C 336.65625 420.820312 337.042969 419.597656 337.238281 419.597656 C 337.300781 419.597656 337.367188 419.726562 337.367188 419.789062 C 337.367188 419.984375 337.171875 420.628906 336.722656 421.015625 C 336.398438 421.207031 336.207031 421.273438 335.496094 421.273438 C 334.914062 421.273438 334.335938 421.207031 333.5625 421.207031 C 332.789062 421.207031 332.011719 421.273438 331.496094 421.273438 C 331.367188 421.273438 331.175781 421.207031 331.175781 421.144531 C 331.175781 420.757812 332.140625 421.144531 332.140625 420.175781 L 332.140625 415.339844 C 332.140625 414.4375 331.109375 414.695312 331.109375 414.371094 C 331.109375 414.242188 331.238281 414.242188 331.367188 414.242188 C 332.011719 414.242188 332.980469 414.308594 333.949219 414.308594 C 334.980469 414.308594 336.398438 414.242188 336.59375 414.242188 C 336.65625 414.242188 336.722656 414.308594 336.722656 414.371094 L 336.722656 415.726562 C 336.722656 415.917969 336.65625 415.984375 336.527344 415.984375 C 336.398438 415.984375 336.335938 415.726562 336.335938 415.53125 C 336.207031 414.953125 335.625 414.695312 334.464844 414.695312 C 333.625 414.695312 333.238281 414.695312 333.238281 415.210938 L 333.238281 417.273438 L 334.722656 417.273438 C 335.820312 417.273438 335.5625 416.371094 335.882812 416.371094 C 336.011719 416.371094 336.011719 416.4375 336.011719 416.566406 C 336.011719 416.757812 335.949219 417.082031 335.949219 417.402344 C 335.949219 417.917969 336.011719 418.304688 336.011719 418.691406 C 336.011719 418.886719 335.949219 418.886719 335.820312 418.886719 C 335.496094 418.886719 335.753906 417.855469 334.65625 417.855469 L 333.175781 417.855469 L 333.175781 420.175781 Z M 333.367188 420.175781 " fill-opacity="1" fill-rule="nonzero"/><path fill="#0e0f17" d="M 342.589844 421.078125 C 342.527344 421.207031 342.460938 421.273438 342.398438 421.273438 C 342.332031 421.273438 342.269531 421.207031 342.203125 421.078125 L 339.945312 416.308594 L 339.882812 416.308594 C 339.816406 416.824219 339.753906 417.597656 339.753906 419.660156 C 339.753906 420.5625 339.882812 420.820312 340.398438 421.015625 C 340.589844 421.078125 340.785156 421.078125 340.785156 421.207031 C 340.785156 421.335938 340.71875 421.335938 340.589844 421.335938 C 340.203125 421.335938 339.882812 421.273438 339.496094 421.273438 C 339.042969 421.273438 338.527344 421.335938 338.269531 421.335938 C 338.207031 421.335938 338.140625 421.335938 338.140625 421.207031 C 338.140625 421.015625 338.914062 421.078125 339.042969 420.371094 C 339.171875 419.53125 339.238281 417.015625 339.238281 415.789062 C 339.238281 414.4375 338.011719 414.824219 338.011719 414.4375 C 338.011719 414.308594 338.078125 414.242188 338.207031 414.242188 C 338.527344 414.242188 338.65625 414.308594 338.980469 414.308594 C 339.367188 414.308594 339.625 414.242188 339.882812 414.242188 C 340.011719 414.242188 340.074219 414.308594 340.140625 414.4375 L 342.65625 419.53125 L 342.785156 419.53125 L 345.300781 414.628906 C 345.429688 414.4375 345.492188 414.308594 345.621094 414.308594 L 346.269531 414.308594 C 346.527344 414.308594 346.71875 414.242188 346.847656 414.242188 L 347.171875 414.242188 C 347.234375 414.242188 347.300781 414.308594 347.300781 414.4375 C 347.300781 414.757812 346.269531 414.4375 346.269531 415.597656 C 346.269531 416.824219 346.398438 418.757812 346.398438 420.046875 C 346.398438 421.207031 347.492188 420.886719 347.492188 421.207031 C 347.492188 421.273438 347.429688 421.335938 347.363281 421.335938 C 346.976562 421.335938 346.460938 421.273438 345.945312 421.273438 C 345.492188 421.273438 345.105469 421.335938 344.785156 421.335938 C 344.589844 421.335938 344.460938 421.335938 344.460938 421.207031 C 344.460938 420.886719 345.234375 421.015625 345.234375 420.175781 L 345.234375 416.113281 L 345.105469 416.179688 Z M 342.589844 421.078125 " fill-opacity="1" fill-rule="nonzero"/><path fill="#0e0f17" d="M 349.492188 415.660156 C 349.492188 414.5 348.203125 414.886719 348.203125 414.5 C 348.203125 414.371094 348.394531 414.308594 348.78125 414.308594 C 349.171875 414.308594 349.621094 414.371094 349.945312 414.371094 C 350.332031 414.371094 350.652344 414.308594 351.039062 414.308594 C 351.363281 414.242188 351.75 414.242188 352.074219 414.242188 C 353.8125 414.242188 354.523438 415.273438 354.523438 416.179688 C 354.523438 417.402344 353.554688 418.242188 352.136719 418.242188 C 351.425781 418.242188 350.976562 418.046875 350.976562 417.855469 C 350.976562 417.726562 351.039062 417.726562 351.167969 417.726562 L 351.816406 417.726562 C 352.847656 417.726562 353.296875 417.210938 353.296875 416.308594 C 353.296875 415.082031 352.203125 414.695312 351.425781 414.695312 C 350.976562 414.695312 350.652344 414.824219 350.652344 415.46875 L 350.652344 420.304688 C 350.652344 421.144531 351.878906 420.886719 351.878906 421.207031 C 351.878906 421.273438 351.816406 421.335938 351.6875 421.335938 C 351.234375 421.335938 350.78125 421.273438 350.265625 421.273438 C 349.75 421.273438 349.171875 421.335938 348.78125 421.335938 C 348.652344 421.335938 348.589844 421.273438 348.589844 421.207031 C 348.589844 420.820312 349.492188 421.144531 349.492188 420.371094 Z M 349.492188 415.660156 " fill-opacity="1" fill-rule="nonzero"/><path fill="#0e0f17" d="M 356.199219 415.339844 C 356.199219 414.5 355.039062 414.824219 355.039062 414.4375 C 355.039062 414.308594 355.105469 414.242188 355.234375 414.242188 C 355.621094 414.242188 356.070312 414.308594 356.714844 414.308594 C 357.363281 414.308594 357.8125 414.242188 358.070312 414.242188 C 358.199219 414.242188 358.265625 414.308594 358.265625 414.371094 C 358.265625 414.695312 357.363281 414.566406 357.363281 415.402344 L 357.363281 420.371094 C 357.363281 420.757812 357.554688 420.886719 358.394531 420.886719 C 360.652344 420.886719 360.910156 419.660156 361.101562 419.660156 C 361.230469 419.660156 361.296875 419.726562 361.296875 419.855469 C 361.296875 421.335938 360.007812 421.335938 359.359375 421.335938 C 359.039062 421.335938 358.714844 421.335938 358.328125 421.273438 C 357.941406 421.273438 357.492188 421.207031 357.234375 421.207031 C 356.84375 421.207031 356.523438 421.207031 356.265625 421.273438 L 355.683594 421.273438 C 355.492188 421.273438 355.363281 421.273438 355.363281 421.144531 C 355.363281 420.886719 356.265625 420.949219 356.265625 420.242188 Z M 356.199219 415.339844 " fill-opacity="1" fill-rule="nonzero"/><path fill="#0e0f17" d="M 363.488281 420.175781 C 363.488281 420.691406 363.875 420.820312 364.714844 420.820312 C 366.84375 420.820312 367.164062 419.597656 367.421875 419.597656 C 367.488281 419.597656 367.550781 419.726562 367.550781 419.789062 C 367.550781 419.984375 367.359375 420.628906 366.90625 421.015625 C 366.648438 421.207031 366.390625 421.273438 365.683594 421.273438 C 365.101562 421.273438 364.519531 421.207031 363.746094 421.207031 C 363.039062 421.207031 362.199219 421.273438 361.683594 421.273438 C 361.554688 421.273438 361.359375 421.207031 361.359375 421.144531 C 361.359375 420.757812 362.328125 421.144531 362.328125 420.175781 L 362.328125 415.339844 C 362.328125 414.4375 361.296875 414.695312 361.296875 414.371094 C 361.296875 414.242188 361.425781 414.242188 361.554688 414.242188 C 362.199219 414.242188 363.230469 414.308594 364.132812 414.308594 C 365.230469 414.308594 366.585938 414.242188 366.777344 414.242188 C 366.90625 414.242188 366.972656 414.308594 366.972656 414.371094 C 366.972656 414.566406 366.90625 414.824219 366.90625 415.726562 C 366.90625 415.917969 366.84375 415.984375 366.777344 415.984375 C 366.648438 415.984375 366.585938 415.726562 366.585938 415.53125 C 366.457031 414.953125 365.941406 414.695312 364.714844 414.695312 C 363.941406 414.695312 363.488281 414.695312 363.488281 415.210938 L 363.488281 417.273438 L 364.90625 417.273438 C 366.070312 417.273438 365.746094 416.371094 366.070312 416.371094 C 366.199219 416.371094 366.261719 416.4375 366.261719 416.566406 C 366.261719 416.757812 366.199219 417.082031 366.199219 417.402344 L 366.199219 418.691406 C 366.199219 418.886719 366.132812 418.886719 366.003906 418.886719 C 365.683594 418.886719 365.941406 417.855469 364.90625 417.855469 L 363.425781 417.855469 L 363.425781 420.175781 Z M 363.488281 420.175781 " fill-opacity="1" fill-rule="nonzero"/><path fill="#0e0f17" d="M 379.035156 415.53125 C 379.035156 414.4375 377.742188 414.757812 377.742188 414.4375 C 377.742188 414.308594 377.808594 414.242188 377.9375 414.242188 C 378.195312 414.242188 378.648438 414.308594 379.097656 414.308594 C 379.550781 414.308594 380 414.242188 380.195312 414.242188 C 380.324219 414.242188 380.324219 414.242188 380.324219 414.371094 C 380.324219 414.628906 379.613281 414.4375 379.550781 415.339844 L 379.421875 418.433594 C 379.355469 420.046875 378.519531 421.335938 376.261719 421.335938 C 374.519531 421.335938 373.164062 420.691406 373.164062 418.953125 L 373.164062 415.597656 C 373.164062 415.015625 373.035156 414.824219 372.582031 414.695312 C 372.195312 414.566406 371.9375 414.5 371.9375 414.4375 C 371.9375 414.371094 372.003906 414.308594 372.132812 414.308594 C 372.582031 414.308594 373.035156 414.371094 373.550781 414.371094 C 374.066406 414.371094 374.582031 414.308594 375.035156 414.308594 C 375.164062 414.308594 375.164062 414.308594 375.164062 414.4375 C 375.164062 414.628906 374.839844 414.628906 374.582031 414.695312 C 374.261719 414.886719 374.195312 415.082031 374.195312 415.53125 L 374.195312 418.824219 C 374.195312 420.113281 374.90625 420.949219 376.195312 420.949219 C 378.324219 420.949219 378.839844 419.855469 378.839844 417.855469 L 378.839844 415.53125 Z M 379.035156 415.53125 " fill-opacity="1" fill-rule="nonzero"/><path fill="#0e0f17" d="M 388.128906 415.789062 C 388.128906 414.4375 386.710938 414.824219 386.710938 414.4375 C 386.710938 414.308594 386.839844 414.308594 386.96875 414.308594 C 387.289062 414.308594 387.804688 414.371094 388.257812 414.371094 C 388.835938 414.371094 389.226562 414.308594 389.546875 414.308594 C 389.675781 414.308594 389.675781 414.371094 389.675781 414.4375 C 389.675781 414.757812 388.644531 414.4375 388.644531 415.660156 L 388.644531 421.207031 C 388.644531 421.402344 388.578125 421.402344 388.386719 421.402344 C 388.257812 421.402344 388.191406 421.335938 387.871094 421.078125 L 383.097656 415.917969 L 382.96875 415.917969 L 382.96875 420.175781 C 382.96875 421.273438 384.324219 420.820312 384.324219 421.273438 C 384.324219 421.402344 384.195312 421.402344 384 421.402344 C 383.613281 421.402344 383.097656 421.335938 382.710938 421.335938 C 382.324219 421.335938 381.871094 421.402344 381.484375 421.402344 C 381.355469 421.402344 381.292969 421.335938 381.292969 421.273438 C 381.292969 420.820312 382.386719 421.273438 382.386719 419.660156 L 382.386719 415.726562 C 382.386719 414.5 381.03125 414.824219 381.03125 414.5 C 381.03125 414.371094 381.097656 414.371094 381.226562 414.371094 C 381.421875 414.371094 381.613281 414.4375 382.066406 414.4375 C 382.386719 414.4375 382.644531 414.371094 382.902344 414.371094 C 383.097656 414.371094 383.289062 414.4375 383.417969 414.566406 L 388 419.597656 L 388.128906 419.46875 Z M 388.128906 415.789062 " fill-opacity="1" fill-rule="nonzero"/><path fill="#0e0f17" d="M 391.480469 415.273438 C 391.480469 414.4375 390.257812 414.695312 390.257812 414.371094 C 390.257812 414.308594 390.320312 414.242188 390.449219 414.242188 C 390.902344 414.242188 391.351562 414.308594 391.871094 414.308594 C 392.320312 414.308594 392.902344 414.242188 393.351562 414.242188 C 393.480469 414.242188 393.480469 414.242188 393.480469 414.371094 C 393.480469 414.757812 392.578125 414.4375 392.578125 415.144531 L 392.578125 420.304688 C 392.578125 421.144531 393.804688 420.886719 393.804688 421.207031 C 393.804688 421.273438 393.738281 421.335938 393.609375 421.335938 C 393.222656 421.335938 392.707031 421.273438 392.191406 421.273438 C 391.738281 421.273438 391.160156 421.335938 390.707031 421.335938 C 390.578125 421.335938 390.578125 421.273438 390.578125 421.207031 C 390.578125 420.820312 391.480469 421.144531 391.480469 420.371094 Z M 391.480469 415.273438 " fill-opacity="1" fill-rule="nonzero"/><path fill="#0e0f17" d="M 394.902344 415.273438 C 394.511719 414.371094 393.996094 414.695312 393.996094 414.371094 C 393.996094 414.242188 394.0625 414.242188 394.125 414.242188 C 394.320312 414.242188 394.964844 414.308594 395.351562 414.308594 C 395.738281 414.308594 396.253906 414.242188 396.511719 414.242188 C 396.640625 414.242188 396.707031 414.242188 396.707031 414.371094 C 396.707031 414.628906 396.0625 414.5 396.0625 415.015625 C 396.0625 415.210938 396.449219 415.984375 397.15625 417.855469 C 397.867188 419.597656 397.867188 419.726562 398.0625 419.726562 C 398.191406 419.726562 398.382812 419.53125 399.351562 417.339844 C 399.933594 416.050781 400.191406 415.402344 400.191406 415.082031 C 400.191406 414.5 399.351562 414.695312 399.351562 414.371094 C 399.351562 414.242188 399.480469 414.242188 399.542969 414.242188 C 399.867188 414.242188 400.191406 414.308594 400.511719 414.308594 C 401.027344 414.308594 401.414062 414.242188 401.609375 414.242188 C 401.738281 414.242188 401.800781 414.242188 401.800781 414.371094 C 401.800781 414.566406 401.285156 414.4375 400.835938 415.339844 L 398.449219 420.113281 C 397.867188 421.207031 397.804688 421.335938 397.609375 421.335938 C 397.417969 421.335938 397.417969 421.273438 397.222656 420.820312 Z M 394.902344 415.273438 " fill-opacity="1" fill-rule="nonzero"/><path fill="#0e0f17" d="M 404.382812 420.175781 C 404.382812 420.691406 404.769531 420.820312 405.609375 420.820312 C 407.734375 420.820312 408.058594 419.597656 408.316406 419.597656 C 408.382812 419.597656 408.445312 419.726562 408.445312 419.789062 C 408.445312 419.984375 408.253906 420.628906 407.800781 421.015625 C 407.542969 421.207031 407.285156 421.273438 406.640625 421.273438 C 406.058594 421.273438 405.480469 421.207031 404.703125 421.207031 C 403.996094 421.207031 403.15625 421.273438 402.640625 421.273438 C 402.511719 421.273438 402.316406 421.207031 402.316406 421.144531 C 402.316406 420.757812 403.285156 421.144531 403.285156 420.175781 L 403.285156 415.339844 C 403.285156 414.4375 402.253906 414.695312 402.253906 414.371094 C 402.253906 414.242188 402.382812 414.242188 402.511719 414.242188 C 403.15625 414.242188 404.1875 414.308594 405.089844 414.308594 C 406.1875 414.308594 407.542969 414.242188 407.734375 414.242188 C 407.863281 414.242188 407.929688 414.308594 407.929688 414.371094 C 407.929688 414.566406 407.863281 414.824219 407.863281 415.726562 C 407.863281 415.917969 407.800781 415.984375 407.734375 415.984375 C 407.605469 415.984375 407.542969 415.726562 407.542969 415.53125 C 407.476562 414.953125 406.898438 414.695312 405.738281 414.695312 C 404.898438 414.695312 404.511719 414.695312 404.511719 415.210938 L 404.511719 417.273438 L 405.929688 417.273438 C 407.089844 417.273438 406.769531 416.371094 407.089844 416.371094 C 407.21875 416.371094 407.285156 416.4375 407.285156 416.566406 C 407.285156 416.757812 407.21875 417.082031 407.21875 417.402344 C 407.21875 417.917969 407.285156 418.304688 407.285156 418.691406 C 407.285156 418.886719 407.21875 418.886719 407.089844 418.886719 C 406.769531 418.886719 407.027344 417.855469 405.996094 417.855469 L 404.511719 417.855469 Z M 404.382812 420.175781 " fill-opacity="1" fill-rule="nonzero"/><path fill="#0e0f17" d="M 411.027344 417.660156 L 412.121094 417.660156 C 413.28125 417.660156 413.800781 417.210938 413.800781 416.371094 C 413.800781 414.886719 412.316406 414.757812 411.734375 414.757812 C 411.285156 414.757812 411.089844 414.886719 411.089844 415.402344 Z M 411.027344 420.371094 C 411.027344 421.207031 412.1875 420.949219 412.1875 421.273438 C 412.1875 421.335938 412.121094 421.402344 411.992188 421.402344 C 411.605469 421.402344 411.089844 421.335938 410.636719 421.335938 C 410.121094 421.335938 409.605469 421.402344 409.089844 421.402344 C 409.027344 421.402344 408.960938 421.335938 408.960938 421.273438 C 408.960938 420.886719 409.929688 421.207031 409.929688 420.242188 L 409.929688 415.660156 C 409.929688 414.371094 408.769531 414.886719 408.769531 414.5 C 408.769531 414.308594 408.898438 414.308594 409.089844 414.308594 C 409.414062 414.308594 409.863281 414.371094 410.378906 414.371094 C 411.21875 414.371094 411.800781 414.308594 412.316406 414.308594 C 414.316406 414.308594 414.894531 415.273438 414.894531 416.179688 C 414.894531 417.339844 413.992188 417.660156 413.347656 417.789062 L 415.21875 420.304688 C 415.539062 420.757812 415.796875 420.820312 416.121094 420.820312 C 416.445312 420.820312 416.507812 420.820312 416.507812 421.015625 C 416.507812 421.207031 416.316406 421.273438 415.992188 421.273438 L 415.089844 421.273438 C 414.894531 421.273438 414.507812 421.207031 414.25 420.820312 L 412.832031 418.824219 C 412.378906 418.113281 412.25 418.046875 411.863281 418.046875 L 411.027344 418.046875 Z M 411.027344 420.371094 " fill-opacity="1" fill-rule="nonzero"/><path fill="#0e0f17" d="M 420.378906 414.4375 C 420.699219 414.566406 420.957031 414.628906 421.085938 414.628906 C 421.410156 414.628906 421.28125 414.4375 421.476562 414.4375 C 421.539062 414.4375 421.539062 414.5 421.539062 414.628906 L 421.539062 416.628906 C 421.539062 416.757812 421.476562 416.824219 421.410156 416.824219 C 421.34375 416.824219 421.28125 416.628906 421.214844 416.4375 C 421.023438 415.917969 420.636719 414.695312 419.28125 414.695312 C 418.441406 414.695312 417.863281 415.144531 417.863281 415.855469 C 417.863281 417.46875 421.667969 417.015625 421.667969 419.273438 C 421.667969 420.5 420.699219 421.46875 419.089844 421.46875 C 418.3125 421.46875 417.796875 421.335938 417.21875 421.078125 C 417.023438 420.949219 417.023438 420.886719 416.960938 420.628906 C 416.894531 420.113281 416.636719 419.339844 416.636719 419.015625 C 416.636719 418.824219 416.703125 418.824219 416.832031 418.824219 C 416.960938 418.824219 417.023438 418.886719 417.152344 419.210938 C 417.347656 419.855469 418.121094 421.015625 419.28125 421.015625 C 420.121094 421.015625 420.828125 420.5625 420.828125 419.789062 C 420.828125 418.046875 416.960938 418.5 416.960938 416.308594 C 416.960938 415.339844 417.796875 414.308594 419.21875 414.308594 C 419.605469 414.179688 420.054688 414.308594 420.378906 414.4375 " fill-opacity="1" fill-rule="nonzero"/><path fill="#0e0f17" d="M 423.730469 415.273438 C 423.730469 414.4375 422.507812 414.695312 422.507812 414.371094 C 422.507812 414.308594 422.570312 414.242188 422.699219 414.242188 C 423.152344 414.242188 423.601562 414.308594 424.121094 414.308594 C 424.636719 414.308594 425.152344 414.242188 425.601562 414.242188 C 425.730469 414.242188 425.730469 414.242188 425.730469 414.371094 C 425.730469 414.757812 424.828125 414.4375 424.828125 415.144531 L 424.828125 420.304688 C 424.828125 421.144531 426.054688 420.886719 426.054688 421.207031 C 426.054688 421.273438 425.988281 421.335938 425.859375 421.335938 C 425.472656 421.335938 424.957031 421.273438 424.441406 421.273438 C 423.988281 421.273438 423.410156 421.335938 422.957031 421.335938 C 422.828125 421.335938 422.828125 421.273438 422.828125 421.207031 C 422.828125 420.820312 423.730469 421.144531 423.730469 420.371094 Z M 423.730469 415.273438 " fill-opacity="1" fill-rule="nonzero"/><path fill="#0e0f17" d="M 429.601562 415.53125 C 429.601562 415.210938 429.472656 414.953125 429.148438 414.953125 L 427.925781 414.953125 C 426.828125 414.953125 427.085938 416.371094 426.699219 416.371094 C 426.570312 416.371094 426.503906 416.242188 426.503906 416.179688 C 426.503906 416.050781 426.761719 414.886719 426.761719 414.5 C 426.761719 414.4375 426.894531 414.371094 426.957031 414.371094 C 427.214844 414.371094 428.054688 414.5 428.957031 414.5 L 431.019531 414.5 C 431.472656 414.5 431.921875 414.5 432.375 414.4375 C 432.828125 414.4375 433.214844 414.371094 433.472656 414.371094 C 433.601562 414.371094 433.664062 414.4375 433.664062 414.566406 C 433.664062 414.695312 433.859375 415.789062 433.859375 415.917969 C 433.859375 416.050781 433.792969 416.113281 433.664062 416.113281 C 433.34375 416.113281 433.472656 414.953125 432.441406 414.953125 L 431.277344 414.953125 C 430.890625 414.953125 430.828125 415.144531 430.828125 415.402344 L 430.828125 420.242188 C 430.828125 421.273438 432.117188 420.886719 432.117188 421.273438 C 432.117188 421.402344 431.988281 421.46875 431.792969 421.46875 C 431.34375 421.46875 430.890625 421.402344 430.3125 421.402344 C 429.601562 421.402344 429.148438 421.46875 428.632812 421.46875 C 428.503906 421.46875 428.441406 421.402344 428.441406 421.273438 C 428.441406 420.949219 429.667969 421.273438 429.667969 420.304688 Z M 429.601562 415.53125 " fill-opacity="1" fill-rule="nonzero"/><path fill="#0e0f17" d="M 436.824219 418.304688 L 435.148438 415.402344 C 434.632812 414.5 433.988281 414.695312 433.988281 414.5 C 433.988281 414.371094 434.050781 414.308594 434.179688 414.308594 C 434.632812 414.308594 435.085938 414.371094 435.601562 414.371094 C 435.988281 414.371094 436.308594 414.308594 436.632812 414.308594 C 436.824219 414.308594 436.824219 414.371094 436.824219 414.4375 C 436.824219 414.628906 436.308594 414.628906 436.308594 415.015625 C 436.308594 415.402344 437.601562 417.597656 437.730469 417.597656 C 437.859375 417.597656 439.082031 415.660156 439.082031 415.210938 C 439.082031 414.5 438.117188 414.695312 438.117188 414.4375 C 438.117188 414.308594 438.179688 414.308594 438.308594 414.308594 C 438.503906 414.308594 439.148438 414.371094 439.535156 414.371094 C 439.792969 414.371094 440.246094 414.308594 440.503906 414.308594 C 440.632812 414.308594 440.632812 414.308594 440.632812 414.4375 C 440.632812 414.628906 440.179688 414.566406 439.792969 415.210938 L 437.988281 418.242188 L 437.988281 420.5 C 437.988281 421.273438 438.890625 421.015625 438.890625 421.335938 C 438.890625 421.46875 438.824219 421.46875 438.695312 421.46875 C 438.375 421.46875 437.921875 421.402344 437.472656 421.402344 C 436.953125 421.402344 436.4375 421.46875 436.050781 421.46875 C 435.921875 421.46875 435.859375 421.46875 435.859375 421.335938 C 435.859375 421.015625 436.824219 421.144531 436.824219 420.242188 Z M 436.824219 418.304688 " fill-opacity="1" fill-rule="nonzero"/><path fill="#0e0f17" d="M 443.664062 415.855469 C 444.050781 415.855469 444.371094 415.789062 444.371094 415.339844 C 444.371094 415.015625 444.179688 414.824219 443.855469 414.824219 C 443.597656 414.824219 443.535156 414.824219 443.535156 415.082031 L 443.535156 415.855469 Z M 443.535156 416.628906 C 443.535156 416.953125 443.597656 416.886719 443.855469 416.953125 L 443.855469 417.082031 L 442.886719 417.082031 L 442.886719 416.953125 C 443.082031 416.953125 443.210938 416.953125 443.210938 416.757812 L 443.210938 415.015625 C 443.148438 414.824219 443.082031 414.824219 442.886719 414.824219 L 442.886719 414.695312 L 443.855469 414.695312 C 444.242188 414.695312 444.757812 414.757812 444.757812 415.210938 C 444.757812 415.597656 444.4375 415.789062 444.113281 415.855469 C 444.566406 415.917969 444.566406 416.886719 445.015625 416.886719 L 445.015625 417.015625 L 444.886719 417.015625 C 444.5 417.015625 444.4375 417.015625 444.242188 416.5 C 444.113281 416.179688 444.050781 415.984375 443.664062 415.984375 L 443.535156 415.984375 Z M 445.726562 415.984375 C 445.726562 414.953125 444.953125 414.179688 443.921875 414.179688 C 442.953125 414.179688 442.179688 414.953125 442.179688 415.984375 C 442.179688 416.886719 442.953125 417.726562 443.921875 417.726562 C 444.886719 417.726562 445.726562 416.953125 445.726562 415.984375 M 441.921875 415.984375 C 441.921875 414.886719 442.757812 413.984375 443.921875 413.984375 C 445.015625 413.984375 445.921875 414.886719 445.921875 415.917969 C 445.921875 417.082031 445.015625 417.917969 443.921875 417.917969 C 442.824219 417.984375 441.921875 417.082031 441.921875 415.984375 " fill-opacity="1" fill-rule="nonzero"/></svg>